<svg width="600" height="450" viewBox="0 0 600 450" fill="none" xmlns="http://www.w3.org/2000/svg">
<g clip-path="url(#clip0_263_2555)">
<path opacity="0.1" d="M589.834 358.652C574.973 390.189 544.781 411.276 513.503 425.183C488.461 436.244 461.99 443.508 434.918 446.749C429.733 447.382 424.531 447.873 419.313 448.222C405.978 449.115 392.601 449.1 379.268 448.176C371.248 447.627 363.256 446.751 355.292 445.546C327.62 441.395 300.642 433.316 275.129 421.541C267.766 418.131 260.552 414.408 253.487 410.373C241.687 403.647 230.38 396.043 219.658 387.623C217.286 385.758 214.943 383.854 212.63 381.909L211.679 381.109C209.861 379.567 208.059 377.991 206.229 376.46C203.188 373.84 199.96 371.459 196.572 369.337C196.343 369.199 196.113 369.061 195.878 368.928C195.252 368.554 194.614 368.203 193.965 367.87C192.628 367.177 191.257 366.554 189.858 366.005C183.395 363.474 176.474 362.553 169.458 362.709C168.294 362.709 167.13 362.789 165.961 362.87C164.327 362.985 162.687 363.157 161.053 363.376L160.449 363.462C155.243 364.22 150.095 365.356 145.046 366.863C137.246 369.164 129.586 372.041 121.876 374.636C118.602 375.747 115.324 376.805 112.017 377.755L111.289 377.962C106.586 379.322 101.799 380.353 96.96 381.046C85.964 382.492 74.7957 381.567 64.1663 378.33L63.797 378.221L63.1144 378.014L62.18 377.715C60.6133 377.208 59.0597 376.654 57.5192 376.052L56.5848 375.683C55.0927 375.093 53.6323 374.458 52.2037 373.779L51.2693 373.342C49.7772 372.628 48.3169 371.874 46.8882 371.08C46.3734 370.804 45.8643 370.505 45.3607 370.223C43.8388 369.348 42.3467 368.432 40.8845 367.473C39.3328 366.456 37.8146 365.396 36.33 364.291C35.6436 363.785 34.9647 363.265 34.2933 362.732C30.4228 359.687 26.7983 356.326 23.4553 352.68C23.2707 352.49 23.0972 352.294 22.9238 352.104C22.0341 351.115 21.1613 350.108 20.3164 349.078C20.0031 348.698 19.6897 348.318 19.382 347.927C18.3786 346.669 17.4106 345.382 16.4781 344.066C16.3382 343.876 16.2039 343.681 16.0696 343.491C12.2466 338.054 9.07718 332.161 6.63044 325.942C6.55211 325.752 6.47937 325.556 6.41223 325.366C5.66619 323.391 4.98544 321.383 4.36996 319.342C4.11818 318.491 3.87758 317.616 3.66496 316.764C3.59222 316.511 3.52508 316.252 3.46353 315.999C0.37496 303.496 0.0224609 290.498 0.0224609 277.575C0.0224609 276.068 0.0224609 274.562 0.0224609 273.058C0.111985 252.155 0.425317 230.895 3.42437 210.279C3.42437 210.135 3.46353 209.991 3.48591 209.853C4.48968 202.913 5.85502 196.033 7.57604 189.243C9.37725 182.118 11.6792 175.138 14.4638 168.356C21.3627 151.67 31.395 136.486 42.5351 122.412C55.9637 105.479 71.3506 89.8515 88.4888 76.9572C90.9507 75.1045 93.4462 73.3054 95.9752 71.5601L97.1446 70.7718C97.5531 70.4899 97.9616 70.1965 98.37 69.949C99.2093 69.3737 100.049 68.8328 100.899 68.2862L101.85 67.6763L103.663 66.5255L104.223 66.1976L105.191 65.6222L106.147 65.0468C107.266 64.3679 108.399 63.7043 109.544 63.056C114.434 60.252 119.44 57.6896 124.561 55.3689C126.072 54.6823 127.592 54.0206 129.121 53.3838C136.065 50.4758 143.198 48.0706 150.467 46.1858C153.153 45.4877 155.855 44.874 158.575 44.3446C161.783 43.7078 165.007 43.1804 168.249 42.7623C173.407 42.0949 178.595 41.6974 183.793 41.5713C220.341 40.6564 257.258 52.889 285.9 76.3358C297.314 85.68 307.57 96.7445 320.389 103.908C331.58 110.145 344.678 112.729 356.663 107.821C366.567 103.764 373.012 101.75 384.136 102.366C407.153 103.699 429.844 108.579 451.452 116.843C452.325 117.171 453.198 117.51 454.065 117.849C510.415 140.03 558.864 184.076 584.031 240.676C584.695 242.172 585.342 243.68 585.973 245.199C600.985 281.246 606.401 323.508 589.834 358.652Z" fill="#85CBFE"/>
<path opacity="0.1" d="M112 159.605V377.766L111.273 377.974C106.57 379.334 101.782 380.364 96.9432 381.058C85.9471 382.503 74.7788 381.578 64.1495 378.342L63.7802 378.232L63.0976 378.025L62.1631 377.726C60.5965 377.22 59.0429 376.666 57.5023 376.063L56.5679 375.695C55.0758 375.104 53.6155 374.47 52.1868 373.791L51.2524 373.353C49.7604 372.64 48.3 371.886 46.8714 371.092C46.3566 370.816 45.8474 370.517 45.3438 370.235C43.8219 369.36 42.3299 368.443 40.8677 367.484C39.3159 366.468 37.7977 365.407 36.3131 364.303C35.6268 363.796 34.9479 363.276 34.2765 362.743C30.4059 359.699 26.7814 356.337 23.4385 352.691C23.2538 352.501 23.0804 352.306 22.9069 352.116C22.0173 351.126 21.1444 350.119 20.2996 349.089C19.9862 348.71 19.6729 348.33 19.3651 347.939C18.3617 346.681 17.3938 345.394 16.4612 344.078C16.3213 343.888 16.187 343.692 16.0528 343.503C12.2297 338.066 9.06034 332.173 6.6136 325.953C6.53526 325.764 6.46252 325.568 6.39538 325.378C5.64935 323.403 4.96859 321.394 4.35312 319.354C4.10133 318.502 3.86074 317.628 3.64812 316.776C3.57538 316.523 3.50823 316.264 3.44669 316.011C0.358114 303.508 0.00561523 290.51 0.00561523 277.587C0.00561523 276.079 0.00561523 274.574 0.00561523 273.07C0.0951391 252.167 0.408471 230.906 3.40752 210.29C3.40752 210.147 3.44669 210.003 3.46907 209.865C4.47283 202.924 5.83817 196.044 7.55919 189.254H64.6978V159.605H76.0897V135.79H100.608V159.605H112Z" fill="#85CBFE"/>
<path opacity="0.1" d="M589.833 358.652C574.972 390.189 544.781 411.277 513.503 425.184C488.461 436.245 461.99 443.509 434.918 446.749C429.733 447.382 424.531 447.873 419.313 448.222C405.978 449.116 392.6 449.1 379.268 448.176C371.248 447.627 363.256 446.751 355.292 445.546C327.62 441.395 300.642 433.316 275.129 421.541C267.766 418.131 260.552 414.409 253.487 410.373C241.687 403.647 230.38 396.044 219.658 387.623C217.286 385.758 214.943 383.854 212.63 381.909L211.679 381.109C209.861 379.567 208.059 377.991 206.229 376.46C203.188 373.841 199.96 371.46 196.572 369.337C196.343 369.199 196.113 369.061 195.878 368.929C195.251 368.555 194.614 368.204 193.965 367.87C192.627 367.177 191.257 366.555 189.858 366.006V276.758H293.7V296.626H339.273V151.297H392.915V209.41H419.447V175.002H441.369V138.247H451.441V116.843C452.314 117.171 453.186 117.51 454.054 117.85V138.247H463.857V175.025H485.762V209.433H518.063V340.522H569.405V245.187H585.95C600.985 281.246 606.401 323.508 589.833 358.652Z" fill="#85CBFE"/>
<path opacity="0.1" d="M379.279 173.167H355.303V197.822H379.279V173.167Z" fill="#85CBFE"/>
<path opacity="0.1" d="M379.279 224.272H355.303V248.927H379.279V224.272Z" fill="#85CBFE"/>
<path opacity="0.1" d="M379.279 275.383H355.303V300.038H379.279V275.383Z" fill="#85CBFE"/>
<path opacity="0.1" d="M379.279 326.494H355.303V351.149H379.279V326.494Z" fill="#85CBFE"/>
<path opacity="0.1" d="M379.279 377.6H355.303V402.255H379.279V377.6Z" fill="#85CBFE"/>
<path opacity="0.1" d="M379.279 428.699V448.17C371.259 447.622 363.267 446.745 355.303 445.541V428.699H379.279Z" fill="#85CBFE"/>
<path opacity="0.1" d="M281.687 308.623H197.764V319.791H281.687V308.623Z" fill="#85CBFE"/>
<path opacity="0.1" d="M281.687 342.542H197.764V353.71H281.687V342.542Z" fill="#85CBFE"/>
<path opacity="0.1" d="M281.687 376.46V387.622H219.669C217.297 385.758 214.954 383.854 212.641 381.909L211.69 381.109C209.872 379.567 208.07 377.99 206.24 376.46H281.687Z" fill="#85CBFE"/>
<path opacity="0.1" d="M281.687 410.373V421.541H275.14C267.777 418.131 260.563 414.408 253.498 410.373H281.687Z" fill="#85CBFE"/>
<path opacity="0.1" d="M434.929 239.928H419.324V255.976H434.929V239.928Z" fill="#85CBFE"/>
<path opacity="0.1" d="M96.9767 165.14H81.3716V181.188H96.9767V165.14Z" fill="#85CBFE"/>
<path opacity="0.1" d="M96.9767 202.425H81.3716V218.472H96.9767V202.425Z" fill="#85CBFE"/>
<path opacity="0.1" d="M96.9767 239.704H81.3716V255.751H96.9767V239.704Z" fill="#85CBFE"/>
<path opacity="0.1" d="M96.9767 276.988H81.3716V293.036H96.9767V276.988Z" fill="#85CBFE"/>
<path opacity="0.1" d="M96.9767 314.273H81.3716V330.32H96.9767V314.273Z" fill="#85CBFE"/>
<path opacity="0.1" d="M96.9767 351.552H81.3716V367.599H96.9767V351.552Z" fill="#85CBFE"/>
<path opacity="0.1" d="M494.513 239.928H478.908V255.976H494.513V239.928Z" fill="#85CBFE"/>
<path opacity="0.1" d="M434.929 279.514H419.324V295.562H434.929V279.514Z" fill="#85CBFE"/>
<path opacity="0.1" d="M494.513 279.514H478.908V295.562H494.513V279.514Z" fill="#85CBFE"/>
<path opacity="0.1" d="M434.929 319.106H419.324V335.153H434.929V319.106Z" fill="#85CBFE"/>
<path opacity="0.1" d="M494.513 319.106H478.908V335.153H494.513V319.106Z" fill="#85CBFE"/>
<path opacity="0.1" d="M434.929 358.698H419.324V374.746H434.929V358.698Z" fill="#85CBFE"/>
<path opacity="0.1" d="M494.513 358.698H478.908V374.746H494.513V358.698Z" fill="#85CBFE"/>
<path opacity="0.1" d="M434.929 398.284H419.324V414.332H434.929V398.284Z" fill="#85CBFE"/>
<path opacity="0.1" d="M494.513 398.284H478.908V414.332H494.513V398.284Z" fill="#85CBFE"/>
<path opacity="0.1" d="M419.324 448.222V437.871H434.929V446.749L419.324 448.222Z" fill="#85CBFE"/>
<path opacity="0.1" d="M3.41309 209.87V219.076H63.0975V209.87H3.41309ZM8.72856 218.501H4.34749V210.445H8.72856V218.501ZM14.044 218.501H9.66297V210.445H14.044V218.501ZM19.3595 218.501H14.9784V210.445H19.3595V218.501ZM24.675 218.501H20.2939V210.445H24.675V218.501ZM29.9905 218.501H25.6094V210.445H29.9905V218.501ZM35.306 218.501H30.9249V210.445H35.306V218.501ZM40.6214 218.501H36.2404V210.445H40.6214V218.501ZM45.9369 218.501H41.5558V210.445H45.9369V218.501ZM51.2524 218.501H46.8713V210.445H51.2524V218.501ZM56.5679 218.501H52.1868V210.445H56.5679V218.501ZM62.1631 218.501H57.5023V210.445H62.1631V218.501Z" fill="#85CBFE"/>
<path opacity="0.1" d="M3.41309 236.603V245.78H63.0975V236.603H3.41309ZM8.72856 245.204H4.34749V237.178H8.72856V245.204ZM14.044 245.204H9.66297V237.178H14.044V245.204ZM19.3595 245.204H14.9784V237.178H19.3595V245.204ZM24.675 245.204H20.2939V237.178H24.675V245.204ZM29.9905 245.204H25.6094V237.178H29.9905V245.204ZM35.306 245.204H30.9249V237.178H35.306V245.204ZM40.6214 245.204H36.2404V237.178H40.6214V245.204ZM45.9369 245.204H41.5558V237.178H45.9369V245.204ZM51.2524 245.204H46.8713V237.178H51.2524V245.204ZM56.5679 245.204H52.1868V237.178H56.5679V245.204ZM62.1631 245.204H57.5023V237.178H62.1631V245.204Z" fill="#85CBFE"/>
<path opacity="0.1" d="M3.41309 263.329V272.506H63.0975V263.329H3.41309ZM8.72856 271.931H4.34749V263.904H8.72856V271.931ZM14.044 271.931H9.66297V263.904H14.044V271.931ZM19.3595 271.931H14.9784V263.904H19.3595V271.931ZM24.675 271.931H20.2939V263.904H24.675V271.931ZM29.9905 271.931H25.6094V263.904H29.9905V271.931ZM35.306 271.931H30.9249V263.904H35.306V271.931ZM40.6214 271.931H36.2404V263.904H40.6214V271.931ZM45.9369 271.931H41.5558V263.904H45.9369V271.931ZM51.2524 271.931H46.8713V263.904H51.2524V271.931ZM56.5679 271.931H52.1868V263.904H56.5679V271.931ZM62.1631 271.931H57.5023V263.904H62.1631V271.931Z" fill="#85CBFE"/>
<path opacity="0.1" d="M3.41309 290.032V299.238H63.0975V290.032H3.41309ZM8.72856 298.663H4.34749V290.608H8.72856V298.663ZM14.044 298.663H9.66297V290.608H14.044V298.663ZM19.3595 298.663H14.9784V290.608H19.3595V298.663ZM24.675 298.663H20.2939V290.608H24.675V298.663ZM29.9905 298.663H25.6094V290.608H29.9905V298.663ZM35.306 298.663H30.9249V290.608H35.306V298.663ZM40.6214 298.663H36.2404V290.608H40.6214V298.663ZM45.9369 298.663H41.5558V290.608H45.9369V298.663ZM51.2524 298.663H46.8713V290.608H51.2524V298.663ZM56.5679 298.663H52.1868V290.608H56.5679V298.663ZM62.1631 298.663H57.5023V290.608H62.1631V298.663Z" fill="#85CBFE"/>
<path opacity="0.1" d="M3.64258 316.782C3.8552 317.645 4.09579 318.508 4.34758 319.359V317.357H8.72865V325.412H6.38984C6.45699 325.602 6.52972 325.798 6.60806 325.988H63.12V316.782H3.64258ZM14.0441 325.412H9.66306V317.357H14.0441V325.412ZM19.3596 325.412H14.9785V317.357H19.3596V325.412ZM24.6751 325.412H20.294V317.357H24.6751V325.412ZM29.9906 325.412H25.6095V317.357H29.9906V325.412ZM35.306 325.412H30.925V317.357H35.306V325.412ZM40.6215 325.412H36.2405V317.357H40.6215V325.412ZM45.937 325.412H41.5559V317.357H45.937V325.412ZM51.2525 325.412H46.8714V317.357H51.2525V325.412ZM56.568 325.412H52.1869V317.357H56.568V325.412ZM62.1632 325.412H57.5024V317.357H62.1632V325.412Z" fill="#85CBFE"/>
<path opacity="0.1" d="M16.0471 343.508C16.1814 343.698 16.3157 343.894 16.4556 344.084H19.3595V347.944C19.6672 348.33 19.9806 348.71 20.2939 349.095V344.089H24.675V352.145H22.9013C23.0747 352.335 23.2482 352.53 23.4328 352.72H63.0975V343.514L16.0471 343.508ZM29.9905 352.139H25.6094V344.084H29.9905V352.139ZM35.3059 352.139H30.9249V344.084H35.3059V352.139ZM40.6214 352.139H36.2403V344.084H40.6214V352.139ZM45.9369 352.139H41.5558V344.084H45.9369V352.139ZM51.2524 352.139H46.8713V344.084H51.2524V352.139ZM56.5678 352.139H52.1868V344.084H56.5678V352.139ZM62.1631 352.139H57.5023V344.084H62.1631V352.139Z" fill="#85CBFE"/>
<path opacity="0.1" d="M45.3438 370.234C45.8473 370.528 46.3565 370.81 46.8713 371.092V370.81H51.2523V373.353L52.1867 373.79V370.81H56.5678V375.695L57.5022 376.063V370.81H62.163V377.714L63.0975 378.014V370.234H45.3438Z" fill="#85CBFE"/>
<path opacity="0.1" d="M229.382 130.174C229.382 130.174 216.043 129.346 217.632 138.954C217.551 139.443 217.622 139.945 217.835 140.39C218.048 140.834 218.392 141.198 218.819 141.429C218.819 141.429 218.819 140.715 220.184 140.957C220.663 141.038 221.149 141.061 221.633 141.026C222.288 140.982 222.91 140.719 223.407 140.278C223.407 140.278 227.156 138.684 228.616 132.384C228.616 132.384 229.69 131.008 229.651 130.657L227.413 131.647C227.413 131.647 228.185 133.316 227.581 134.702C227.581 134.702 227.508 131.71 227.072 131.779C226.988 131.779 225.902 132.355 225.902 132.355C225.902 132.355 227.228 135.266 226.227 137.378C226.227 137.378 226.607 133.799 225.494 132.568L223.871 133.529C223.871 133.529 225.421 136.532 224.369 138.983C224.369 138.983 224.643 135.226 223.541 133.765L222.103 134.915C222.103 134.915 223.558 137.873 222.663 139.91C222.663 139.91 222.545 135.531 221.784 135.197C221.238 135.671 220.751 136.212 220.335 136.808C220.335 136.808 221.331 138.954 220.715 140.088C220.715 140.088 220.335 137.177 220.022 137.159C220.022 137.159 218.774 139.093 218.645 140.416C218.703 139.188 219.073 137.998 219.719 136.964C218.999 137.104 218.333 137.458 217.806 137.982C217.806 137.982 218.002 136.618 220.044 136.498C220.044 136.498 221.079 135.036 221.359 134.944C221.359 134.944 219.339 134.771 218.114 135.33C218.114 135.33 219.194 134.041 221.728 134.628L223.144 133.437C223.144 133.437 220.486 133.063 219.361 133.477C219.361 133.477 220.654 132.326 223.524 133.166L225.069 132.217C223.882 131.95 222.667 131.841 221.454 131.895C221.454 131.895 222.875 131.106 225.522 131.964L226.641 131.452C226.641 131.452 224.962 131.118 224.498 131.066C224.033 131.014 223.983 130.876 223.983 130.876C225.034 130.696 226.113 130.819 227.1 131.233C227.1 131.233 229.422 130.324 229.382 130.174Z" fill="#85CBFE"/>
<path opacity="0.1" d="M194.367 176.935C194.367 176.935 189.807 189.847 199.219 191.026C199.649 191.244 200.136 191.317 200.61 191.233C201.083 191.149 201.519 190.914 201.854 190.56C201.854 190.56 201.199 190.336 201.804 189.076C202.015 188.628 202.177 188.157 202.285 187.672C202.426 187.013 202.356 186.324 202.083 185.71C202.083 185.71 201.664 181.561 196.203 178.334C196.203 178.334 195.229 176.878 194.888 176.82L195.168 179.323C195.168 179.323 196.941 179.036 198.066 180.025C198.066 180.025 195.268 179.248 195.196 179.697C195.196 179.784 195.403 181.015 195.403 181.015C195.403 181.015 198.491 180.532 200.175 182.12C200.175 182.12 196.941 180.727 195.481 181.481L195.917 183.311C195.917 183.311 199.157 182.643 201.143 184.369C201.143 184.369 197.719 183.04 196.04 183.708L196.706 185.434C196.706 185.434 199.879 184.858 201.524 186.291C201.524 186.291 197.406 185.14 196.885 185.819C197.172 186.489 197.536 187.121 197.971 187.701C197.971 187.701 200.259 187.333 201.138 188.276C201.138 188.276 198.312 187.822 198.211 188.121C198.211 188.121 199.661 189.904 200.858 190.422C199.734 190.013 198.732 189.309 197.954 188.38C197.88 189.132 198.022 189.89 198.362 190.56C198.362 190.56 197.143 189.985 197.607 187.942C197.607 187.942 196.533 186.51 196.533 186.216C196.533 186.216 195.794 188.155 195.973 189.525C195.973 189.525 195.078 188.092 196.343 185.762L195.638 184.036C195.638 184.036 194.519 186.55 194.597 187.781C194.597 187.781 193.903 186.176 195.492 183.581L195.05 181.792C194.465 182.878 194.019 184.039 193.724 185.244C193.724 185.244 193.388 183.616 194.938 181.251L194.776 180.019C194.776 180.019 193.993 181.561 193.808 182.028C193.623 182.494 193.483 182.476 193.483 182.476C193.612 181.388 194.033 180.358 194.698 179.502C194.698 179.502 194.519 176.935 194.367 176.935Z" fill="#85CBFE"/>
<path opacity="0.1" d="M282.789 166.049C282.789 166.049 278.234 178.984 287.64 180.134C288.072 180.352 288.561 180.424 289.035 180.339C289.509 180.254 289.945 180.018 290.281 179.663C290.281 179.663 289.621 179.438 290.231 178.184C290.444 177.736 290.604 177.262 290.706 176.774C290.85 176.116 290.781 175.427 290.51 174.812C290.51 174.812 290.091 170.664 284.63 167.436C284.63 167.436 283.651 165.986 283.309 165.928L283.595 168.425C283.595 168.425 285.368 168.143 286.493 169.133C286.493 169.133 283.695 168.356 283.617 168.799C283.617 168.891 283.824 170.117 283.824 170.117C283.824 170.117 286.913 169.639 288.602 171.222C288.602 171.222 285.368 169.835 283.902 170.583L284.344 172.419C284.344 172.419 287.584 171.745 289.57 173.477C289.57 173.477 286.141 172.142 284.462 172.81L285.128 174.536C285.128 174.536 288.3 173.961 289.945 175.393C289.945 175.393 285.833 174.242 285.307 174.927C285.602 175.6 285.978 176.232 286.426 176.809C286.426 176.809 288.709 176.435 289.593 177.384C289.593 177.384 286.767 176.93 286.666 177.234C286.666 177.234 288.11 179.012 289.307 179.536C288.184 179.129 287.184 178.424 286.409 177.493C286.335 178.245 286.475 179.003 286.812 179.674C286.812 179.674 285.598 179.099 286.062 177.062C286.062 177.062 284.988 175.623 284.982 175.336C284.982 175.336 284.249 177.28 284.423 178.644C284.423 178.644 283.528 177.217 284.792 174.881L284.087 173.155C284.087 173.155 282.968 175.669 283.046 176.895C283.046 176.895 282.353 175.295 283.942 172.7L283.494 170.905C282.908 171.992 282.463 173.153 282.168 174.358C282.168 174.358 281.838 172.729 283.388 170.364L283.225 169.133C283.225 169.133 282.442 170.675 282.252 171.141C282.062 171.607 281.927 171.59 281.927 171.59C282.06 170.502 282.482 169.472 283.147 168.615C283.147 168.615 282.946 166.055 282.789 166.049Z" fill="#85CBFE"/>
<path opacity="0.1" d="M156.393 271.62C156.393 271.62 151.832 284.537 161.244 285.717C161.675 285.935 162.162 286.007 162.636 285.922C163.11 285.837 163.545 285.6 163.879 285.245C163.879 285.245 163.224 285.021 163.829 283.766C164.044 283.318 164.205 282.845 164.31 282.357C164.454 281.698 164.384 281.008 164.108 280.395C164.108 280.395 163.689 276.246 158.228 273.024C158.228 273.024 157.254 271.568 156.913 271.511L157.193 274.008C157.193 274.008 158.972 273.726 160.091 274.716C160.091 274.716 157.293 273.939 157.221 274.382C157.221 274.474 157.428 275.7 157.428 275.7C157.428 275.7 160.516 275.222 162.2 276.804C162.2 276.804 158.966 275.418 157.506 276.166L157.942 278.001C157.942 278.001 161.182 277.328 163.168 279.06C163.168 279.06 159.744 277.725 158.066 278.392L158.731 280.118C158.731 280.118 161.904 279.543 163.549 280.976C163.549 280.976 159.436 279.825 158.91 280.51C159.197 281.18 159.562 281.811 159.996 282.391C159.996 282.391 162.284 282.017 163.168 282.967C163.168 282.967 160.337 282.512 160.237 282.817C160.237 282.817 161.686 284.595 162.883 285.119C161.758 284.713 160.757 284.01 159.979 283.082C159.905 283.832 160.047 284.588 160.388 285.257C160.388 285.257 159.168 284.681 159.632 282.644C159.632 282.644 158.564 281.206 158.558 280.918C158.558 280.918 157.819 282.863 157.998 284.227C157.998 284.227 157.103 282.8 158.368 280.464L157.663 278.738C157.663 278.738 156.544 281.252 156.628 282.477C156.628 282.477 155.934 280.878 157.523 278.283L157.075 276.494C156.489 277.58 156.043 278.74 155.749 279.946C155.749 279.946 155.413 278.312 156.963 275.953L156.801 274.716C156.801 274.716 156.018 276.258 155.833 276.724C155.648 277.19 155.509 277.173 155.509 277.173C155.638 276.083 156.06 275.053 156.728 274.198C156.728 274.198 156.544 271.62 156.393 271.62Z" fill="#85CBFE"/>
<path opacity="0.1" d="M138.298 149.875C138.298 149.875 133.743 162.787 143.149 163.966C143.581 164.184 144.068 164.256 144.542 164.172C145.016 164.089 145.453 163.854 145.79 163.5C145.79 163.5 145.129 163.276 145.739 162.016C145.95 161.566 146.11 161.093 146.215 160.606C146.358 159.95 146.289 159.263 146.019 158.65C146.019 158.65 145.599 154.501 140.133 151.274C140.133 151.274 139.159 149.818 138.818 149.76L139.103 152.263C139.103 152.263 140.877 151.975 141.996 152.965C141.996 152.965 139.198 152.188 139.126 152.637C139.126 152.723 139.333 153.955 139.333 153.955C139.333 153.955 142.421 153.471 144.111 155.06C144.111 155.06 140.877 153.667 139.411 154.421L139.847 156.251C139.847 156.251 143.087 155.577 145.079 157.309C145.079 157.309 141.649 155.974 139.97 156.648L140.636 158.374C140.636 158.374 143.809 157.798 145.454 159.237C145.454 159.237 141.341 158.086 140.815 158.765C141.102 159.435 141.466 160.067 141.901 160.646C141.901 160.646 144.189 160.278 145.073 161.222C145.073 161.222 142.248 160.767 142.147 161.066C142.147 161.066 143.591 162.85 144.788 163.368C143.664 162.957 142.664 162.254 141.884 161.325C141.81 162.078 141.952 162.836 142.293 163.506C142.293 163.506 141.073 162.931 141.543 160.888C141.543 160.888 140.468 159.455 140.463 159.162C140.463 159.162 139.73 161.101 139.903 162.47C139.903 162.47 139.003 161.038 140.273 158.707L139.562 156.981C139.562 156.981 138.443 159.496 138.527 160.727C138.527 160.727 137.833 159.122 139.422 156.527L138.975 154.737C138.389 155.824 137.943 156.985 137.648 158.19C137.648 158.19 137.318 156.561 138.863 154.196L138.706 152.965C138.706 152.965 137.917 154.507 137.732 154.967C137.548 155.428 137.408 155.422 137.408 155.422C137.537 154.333 137.96 153.303 138.628 152.447C138.628 152.447 138.454 149.875 138.298 149.875Z" fill="#85CBFE"/>
<path opacity="0.1" d="M172.115 220.187C172.115 220.187 175.635 233.42 183.983 228.817C184.457 228.74 184.896 228.51 185.235 228.161C185.575 227.811 185.798 227.36 185.874 226.873C185.874 226.873 185.214 227.08 185.007 225.693C184.928 225.201 184.793 224.72 184.604 224.26C184.356 223.636 183.913 223.113 183.345 222.776C183.345 222.776 180.676 219.634 174.393 220.233C174.393 220.233 172.781 219.628 172.468 219.784L174.102 221.654C174.102 221.654 175.394 220.371 176.866 220.503C176.866 220.503 174.13 221.539 174.331 221.936C174.376 222.016 175.237 222.891 175.237 222.891C175.237 222.891 177.475 220.664 179.758 220.958C179.758 220.958 176.34 221.74 175.567 223.225L176.95 224.462C176.95 224.462 179.221 221.993 181.817 222.223C181.817 222.223 178.264 223.167 177.268 224.709L178.79 225.739C178.79 225.739 181.028 223.374 183.211 223.587C183.211 223.587 179.216 225.1 179.154 225.952C179.765 226.33 180.419 226.629 181.101 226.844C181.101 226.844 182.78 225.187 184.005 225.423C184.005 225.423 181.437 226.729 181.526 227.034C181.526 227.034 183.709 227.609 184.968 227.333C183.821 227.667 182.61 227.687 181.454 227.39C181.814 228.049 182.355 228.583 183.009 228.927C183.009 228.927 181.689 229.174 180.928 227.235C180.928 227.235 179.249 226.7 179.07 226.458C179.07 226.458 179.562 228.484 180.469 229.496C180.469 229.496 178.936 228.858 178.662 226.199L177.112 225.204C177.112 225.204 177.621 227.914 178.36 228.875C178.36 228.875 176.894 227.977 176.737 224.916L175.372 223.719C175.505 224.961 175.794 226.18 176.233 227.344C176.233 227.344 175.053 226.194 174.991 223.363L174.169 222.448C174.169 222.448 174.393 224.174 174.499 224.663C174.605 225.152 174.499 225.238 174.499 225.238C173.995 224.272 173.762 223.18 173.827 222.085C173.827 222.085 172.244 220.1 172.115 220.187Z" fill="#85CBFE"/>
<path opacity="0.1" d="M267.592 232.005C267.592 232.005 271.112 245.239 279.454 240.636C279.93 240.56 280.37 240.331 280.711 239.981C281.052 239.632 281.276 239.18 281.351 238.691C281.351 238.691 280.685 238.898 280.478 237.54C280.404 237.047 280.27 236.566 280.081 236.107C279.829 235.483 279.385 234.962 278.816 234.623C278.816 234.623 276.147 231.481 269.864 232.085C269.864 232.085 268.253 231.475 267.945 231.631L269.573 233.501C269.573 233.501 270.865 232.218 272.337 232.35C272.337 232.35 269.601 233.386 269.808 233.783C269.847 233.863 270.714 234.738 270.714 234.738C270.714 234.738 272.953 232.511 275.235 232.805C275.235 232.805 271.811 233.587 271.039 235.072L272.427 236.309C272.427 236.309 274.665 233.84 277.289 234.07C277.289 234.07 273.741 235.014 272.745 236.556L274.267 237.586C274.267 237.586 276.506 235.221 278.682 235.434C278.682 235.434 274.687 236.947 274.631 237.799C275.24 238.177 275.892 238.477 276.573 238.691C276.573 238.691 278.251 237.034 279.477 237.27C279.477 237.27 276.914 238.576 276.998 238.881C276.998 238.881 279.18 239.456 280.445 239.18C279.296 239.514 278.083 239.534 276.925 239.237C277.287 239.894 277.828 240.428 278.481 240.774C278.481 240.774 277.16 241.021 276.399 239.082C276.399 239.082 274.721 238.547 274.547 238.305C274.547 238.305 275.034 240.331 275.94 241.343C275.94 241.343 274.407 240.705 274.133 238.046L272.583 237.039C272.583 237.039 273.092 239.749 273.837 240.71C273.837 240.71 272.371 239.813 272.214 236.752L270.843 235.555C270.976 236.797 271.267 238.016 271.71 239.18C271.71 239.18 270.524 238.029 270.463 235.198L269.64 234.283C269.64 234.283 269.864 236.009 269.97 236.499C270.077 236.988 269.97 237.074 269.97 237.074C269.466 236.107 269.234 235.016 269.299 233.921C269.299 233.921 267.721 231.918 267.592 232.005Z" fill="#85CBFE"/>
<path d="M231.772 364.906C231.772 364.906 260.8 354.854 254.791 319.238L217.918 309.394L209.357 338.617L231.772 364.906Z" fill="#CED7E7"/>
<path opacity="0.1" d="M209.357 338.618L231.766 364.907C231.766 364.907 260.794 354.855 254.785 319.239L209.357 338.618Z" fill="black"/>
<path d="M87.3808 75.4958C87.3808 75.4958 91.2974 82.0494 96.6521 78.7754C102.007 75.5015 96.8703 66.4565 96.8703 66.4565C96.8703 66.4565 86.6142 65.0123 87.3808 75.4958Z" fill="#FED253"/>
<path opacity="0.1" d="M96.6523 78.7755C96.0206 79.1958 95.3122 79.4789 94.5704 79.6075C93.8286 79.7362 93.069 79.7076 92.3383 79.5235C90.3744 79.0114 88.8637 77.4579 88.0524 76.4395C87.8103 76.1411 87.5861 75.8279 87.3809 75.5016C87.1068 71.7616 88.237 69.5349 89.8037 68.223C91.9578 66.4221 94.9401 66.3473 96.227 66.4048C96.6243 66.4048 96.8537 66.4624 96.8537 66.4624L96.96 66.6465C97.1111 66.9399 97.4412 67.5901 97.7937 68.459C98.9911 71.3071 100.418 76.4682 96.6523 78.7755Z" fill="black"/>
<path d="M234.625 317.564L254.768 319.238L292.256 319.555L262.719 356.955C262.719 356.955 253.347 357.478 251.417 358.836C249.486 360.194 222.383 359.469 222.383 359.469L218.007 340.297L234.625 317.564Z" fill="#FFA2A2"/>
<path opacity="0.05" d="M234.625 317.564L254.768 319.238L292.256 319.555L262.719 356.955C262.719 356.955 253.347 357.478 251.417 358.836C249.486 360.194 222.383 359.469 222.383 359.469L218.007 340.297L234.625 317.564Z" fill="black"/>
<path d="M214.253 217.011L218.936 225.181L219.954 239.427C219.954 239.427 223.216 251.574 225.662 255.135C228.107 258.697 229.125 268.127 229.125 268.127C229.125 268.127 230.143 276.925 231.363 278.806C232.583 280.688 234.217 294.342 234.217 294.342C234.217 294.342 245.016 316.546 254.79 319.267C254.79 319.267 206.308 335.608 231.772 364.935C231.772 364.935 213.643 369.538 209.363 364.308C205.082 359.078 193.881 281.563 193.881 281.563L197.344 216.199L214.253 217.011Z" fill="#CED7E7"/>
<path opacity="0.05" d="M214.253 217.011L218.936 225.181L219.954 239.427C219.954 239.427 223.216 251.574 225.662 255.135C228.107 258.697 229.125 268.127 229.125 268.127C229.125 268.127 230.143 276.925 231.363 278.806C232.583 280.688 234.217 294.342 234.217 294.342C234.217 294.342 245.016 316.546 254.79 319.267C254.79 319.267 206.308 335.608 231.772 364.935C231.772 364.935 213.643 369.538 209.363 364.308C205.082 359.078 193.881 281.563 193.881 281.563L197.344 216.199L214.253 217.011Z" fill="black"/>
<path d="M155.43 137.384C154.07 144.641 154.473 152.132 156.605 159.191L149.063 181.394C149.063 181.394 91.6166 148.506 96.5068 140.542C99.2765 136.026 99.629 124.075 99.4052 114.581C99.2429 107.366 98.7449 101.578 98.7449 101.578C98.7449 101.578 169.245 108.707 159.862 125.255C157.738 129.016 156.241 133.115 155.43 137.384Z" fill="#FFA2A2"/>
<path opacity="0.1" d="M159.862 125.255C157.738 129.016 156.241 133.115 155.43 137.384C144.968 140.826 133.669 140.435 123.455 136.278C113.241 132.121 104.743 124.454 99.4051 114.581C99.2429 107.366 98.7449 101.578 98.7449 101.578C98.7449 101.578 169.228 108.707 159.862 125.255Z" fill="black"/>
<path d="M188.38 89.6385C188.385 97.3191 186.628 104.892 183.251 111.743C179.873 118.594 174.972 124.528 168.944 129.064C162.917 133.6 155.934 136.609 148.563 137.847C141.191 139.085 133.64 138.517 126.522 136.189C119.405 133.861 112.922 129.839 107.601 124.45C102.279 119.06 98.2696 112.455 95.8977 105.172C93.5258 97.8894 92.8586 90.1336 93.9502 82.5355C95.0419 74.9373 97.8616 67.7113 102.18 61.4448C102.852 60.4744 103.558 59.5269 104.301 58.6024C108.53 53.316 113.794 49.0032 119.749 45.9441C122.98 44.2818 126.388 43.0112 129.905 42.1581C136.254 40.6113 142.845 40.4245 149.267 41.6095C155.689 42.7944 161.806 45.3256 167.236 49.0457C172.667 52.7658 177.294 57.5952 180.832 63.2334C184.369 68.8716 186.741 75.198 187.799 81.8191C188.194 84.4056 188.388 87.0203 188.38 89.6385Z" fill="#FFA2A2"/>
<path d="M207.119 290.337C206.408 294.238 207.298 301.367 208.646 308.623C208.702 308.939 208.764 309.256 208.825 309.572C208.887 309.889 208.977 310.378 209.055 310.775C209.676 313.893 210.353 316.983 211.013 319.791C211.673 322.599 212.267 325.004 212.77 326.983C213.531 329.946 214.051 331.811 214.051 331.811C214.051 331.811 214.119 333.64 214.208 336.552C214.258 338.232 214.314 340.28 214.37 342.542C214.37 343.197 214.41 343.865 214.426 344.555C214.454 345.758 214.482 347.006 214.51 348.284C214.51 348.698 214.51 349.112 214.538 349.532C214.538 350.908 214.589 352.311 214.611 353.71C214.639 355.631 214.661 357.553 214.672 359.417C214.672 360.131 214.672 360.833 214.672 361.523C214.672 363.307 214.672 365.016 214.672 366.587C214.611 371.046 214.438 374.412 214.068 375.384C213.94 375.718 213.822 376.08 213.71 376.46C213.225 378.246 212.873 380.068 212.658 381.909L211.707 381.109C209.889 379.567 208.087 377.991 206.257 376.46C203.216 373.841 199.988 371.459 196.6 369.337C196.37 369.199 196.141 369.061 195.906 368.928C195.279 368.554 194.642 368.204 193.992 367.87C192.655 367.177 191.285 366.554 189.886 366.006C183.423 363.474 176.502 362.553 169.485 362.709C166.688 363.808 164.869 364.596 164.869 364.596L161.311 365.701L160.718 365.885C156.862 367.093 151.441 368.808 149.488 369.521C146.332 370.672 118.932 376.535 118.932 376.535C116.429 377.238 113.872 377.719 111.289 377.973C106.586 379.334 101.799 380.364 96.9598 381.058C85.9638 382.503 74.7955 381.578 64.1661 378.342C63.8489 378.361 63.5305 378.352 63.2149 378.313C63.4108 378.313 63.601 378.267 63.7745 378.232L63.0918 378.025L62.1574 377.726C60.5908 377.22 59.0372 376.665 57.4966 376.063L56.5622 375.695C55.0701 375.104 53.6098 374.469 52.1811 373.79L51.2467 373.353C49.7547 372.64 48.2943 371.886 46.8656 371.092C46.3509 370.816 45.8417 370.517 45.3381 370.235C43.8162 369.36 42.3242 368.443 40.8619 367.484C40.6158 365.315 40.4871 363.865 40.4871 363.865L38.3049 352.691L38.193 352.116L36.6264 344.061L36.5144 343.485L33.1069 325.959L32.995 325.384L31.4284 317.328L31.3165 316.753L27.8642 299.238L27.7523 298.663L26.1856 290.608L26.0737 290.032L22.6494 272.483L22.5375 271.908L20.9709 263.881L20.859 263.306L20.2379 260.141L19.3035 255.348C19.3035 255.348 16.3212 250.964 12.9641 245.78L12.5892 245.204C11.6324 243.749 10.6477 242.235 9.69087 240.751C9.37194 240.262 9.0642 239.778 8.75647 239.301C8.2902 238.576 7.83884 237.868 7.40241 237.178L7.10027 236.7L7.03873 236.602C2.21563 228.927 5.44408 225.59 5.44408 225.59C5.44408 225.59 7.46956 222.77 10.0825 219.042C10.2112 218.852 10.3455 218.662 10.4854 218.466C11.6044 216.855 12.8354 215.095 14.044 213.334L14.9784 211.965C15.3309 211.452 15.6778 210.94 16.0135 210.434C16.1478 210.244 16.2765 210.049 16.3996 209.859C18.979 206.027 21.1052 202.684 21.5416 201.498C22.2242 199.628 26.5773 194.099 30.9136 189.249C34.3323 185.417 37.7342 182.01 39.2617 181.193C42.7252 179.312 44.152 173.23 44.152 173.23C44.152 173.23 51.6887 170.514 52.7071 168.42C53.7254 166.325 67.9877 156.912 67.9877 156.912C67.9877 156.912 73.7564 153.092 76.0896 150.79C76.4199 150.489 76.708 150.143 76.9457 149.76C77.757 148.264 83.0557 147.033 85.2098 146.59C85.7693 146.475 86.1163 146.411 86.1163 146.411C86.9859 144.786 88.0852 143.303 89.3783 142.01C90.2567 141.21 91.3534 138.454 92.2766 135.784C93.2782 132.873 94.0559 130.071 94.0559 130.071C95.6897 124.415 98.9461 126.089 98.9461 126.089C98.9417 126.862 99.0129 127.633 99.1588 128.391C100.518 135.295 107.904 138.172 111.782 141.4C116.062 144.956 122.782 154.179 128.081 156.061C132.467 157.62 137.553 163.5 139.165 165.462L139.288 165.612C139.556 165.934 139.691 166.118 139.691 166.118C139.691 166.118 142.695 165.957 144.525 165.923H145.191C145.563 165.884 145.917 165.736 146.209 165.497C148.028 164.225 150.736 160.497 151.916 159.639C153.337 158.586 154.77 141.619 154.77 141.619L154.843 141.584C159.917 139.139 165.362 163.615 165.362 163.615C165.362 163.615 174.935 166.55 175.752 168.644C175.909 169.058 176.63 169.795 177.716 170.687C182.658 174.571 187.919 178.007 193.439 180.957C193.562 181.021 193.679 181.084 193.802 181.136C193.913 181.197 194.027 181.253 194.144 181.303C194.351 181.406 194.552 181.498 194.742 181.584C195.044 181.723 195.324 181.838 195.582 181.93L195.917 182.051C196.719 182.325 197.474 182.727 198.155 183.242C198.357 183.391 198.558 183.547 198.754 183.713C199.516 184.365 200.217 185.09 200.847 185.877C200.942 185.992 201.031 186.113 201.121 186.228C201.546 186.774 201.927 187.315 202.24 187.816C202.754 188.588 203.223 189.391 203.644 190.221C203.644 190.221 211.992 204.887 214.645 206.556C217.297 208.225 218.925 225.204 218.925 225.204L209.972 259.33C209.972 259.33 209.553 267.961 208.77 276.764C208.333 281.701 207.779 286.724 207.119 290.337Z" fill="#CED7E7"/>
<path d="M139.691 167.154C139.691 167.154 133.687 170.503 128.998 170.819C128.384 170.849 127.769 170.812 127.163 170.71C122.25 169.945 115.044 165.79 115.044 165.79L123.498 156.256L133.782 161.498L137.565 165.117L139.691 167.154Z" fill="#63667E"/>
<path opacity="0.1" d="M187.776 81.8193C187.563 82.1287 187.322 82.4158 187.054 82.6766C184.111 85.5535 178.885 84.3625 174.874 83.695C171.388 83.1089 167.982 82.0968 164.729 80.68C161.898 79.4372 158.502 77.9182 155.956 79.7019C154.977 80.3808 154.306 81.4683 153.287 82.0667C152.269 82.6651 150.971 82.7054 149.768 82.7226C145.851 82.7226 141.934 82.7687 138.113 81.8596C132.411 80.4901 126.514 77.0436 121.092 79.3164C116.851 81.0885 114.551 85.8354 113.404 90.3982C112.845 92.6364 112.431 95.0012 111.166 96.9C109.902 98.7988 107.457 100.145 105.375 99.2533C102.303 97.9357 101.85 92.5731 98.1461 92.3027C94.0783 92.0093 94.1287 96.3304 95.3149 99.4547C97.0718 104.058 99.3714 108.661 99.4722 113.459C95.1004 105.407 93.0347 96.2472 93.5139 87.0383C93.9932 77.8295 96.9978 68.9483 102.18 61.422C103.082 60.8477 103.788 59.9991 104.2 58.9939C104.242 58.858 104.275 58.7196 104.301 58.5796C104.609 56.9743 103.741 55.2885 103.691 53.6084C103.495 49.5059 107.815 46.6462 111.776 46.1284C114.411 45.7832 117.108 46.0478 119.749 45.9615C121.08 45.9314 122.402 45.75 123.694 45.4207C125.922 44.7341 128.008 43.6322 129.849 42.1698C136.198 40.623 142.789 40.4363 149.211 41.6212C155.633 42.8061 161.75 45.3374 167.18 49.0574C172.611 52.7775 177.238 57.6069 180.776 63.2451C184.313 68.8833 186.685 75.2097 187.743 81.8308L187.776 81.8193Z" fill="black"/>
<path d="M188.733 78.4302C188.454 79.5683 187.873 80.6042 187.054 81.4222C184.111 84.2991 178.885 83.1023 174.874 82.4348C171.387 81.8615 167.981 80.8569 164.729 79.4428C161.898 78.2058 158.502 76.6868 155.956 78.4705C154.977 79.1494 154.306 80.2369 153.287 80.8353C152.269 81.4337 150.971 81.4739 149.768 81.4855C145.851 81.5142 141.934 81.5372 138.113 80.6281C132.411 79.253 126.514 75.8122 121.092 78.0792C116.851 79.8514 114.551 84.604 113.404 89.1668C112.845 91.405 112.431 93.7698 111.166 95.6628C109.902 97.5558 107.457 98.9137 105.375 98.0219C102.303 96.7043 101.85 91.3417 98.1461 91.0713C94.0783 90.7779 94.1287 95.099 95.3149 98.2233C97.3963 103.672 100.228 109.092 99.2987 114.869C98.3755 114.869 96.848 114.835 95.9416 114.812C96.6466 113.574 95.3037 112.101 93.9664 111.681C92.6292 111.261 91.0681 111.267 90.0498 110.266C89.0314 109.265 89.0258 107.717 89.1322 106.33C89.3642 103.367 90.0694 100.462 91.2192 97.7342C91.9522 96.0081 92.8978 94.1381 92.3382 92.3314C92.0024 91.5124 91.598 90.725 91.1297 89.9781C89.9658 87.6765 90.24 84.7996 91.236 82.4233C91.6612 81.4106 91.9689 80.4555 92.3214 79.5464C92.7666 78.2542 93.4108 77.0438 94.2294 75.9618C95.5107 74.322 96.7641 71.8536 95.3485 70.3288C94.9904 69.9433 95.7066 69.6786 95.4772 69.1781C95.4366 69.0926 95.4083 69.0015 95.3932 68.9076C95.3275 68.3015 95.47 67.6909 95.7961 67.1815C95.8622 67.0491 95.935 66.9204 96.0143 66.796C96.0786 66.6645 96.1516 66.5376 96.2325 66.4162C97.4715 64.289 99.1181 62.4429 101.072 60.9904C102.287 60.087 103.708 59.2182 104.189 57.7567C104.748 56.0306 103.764 54.1951 103.68 52.3712C103.484 48.2687 107.803 45.4091 111.765 44.8912C115.726 44.3734 119.833 45.2307 123.694 44.1778C129.172 42.6933 133.021 37.722 137.995 34.9314C140.717 33.4352 143.734 32.5982 146.818 32.4846C149.902 32.3709 152.97 32.9834 155.788 34.2755C161.596 37.0028 165.977 42.5149 172.042 44.5863C174.191 45.3228 176.519 45.6162 178.455 46.836C180.693 48.2515 182.052 50.7256 183.216 53.1652C184.99 56.8649 185.348 60.5819 186.573 64.5002C187.547 67.6073 188.895 71.6695 189.007 75.2483C189.07 76.3171 188.978 77.3895 188.733 78.4302Z" fill="#896363"/>
<g opacity="0.1">
<path d="M96.0759 71.2203C96.1654 70.852 96.1742 70.4679 96.1017 70.0957C96.0291 69.7236 95.877 69.3726 95.6563 69.0684C95.8017 69.5172 95.1695 69.7761 95.5164 70.1501C95.7927 70.4488 95.986 70.8184 96.0759 71.2203Z" fill="black"/>
<path d="M95.6395 67.751C95.5735 67.9518 95.534 68.1608 95.522 68.3724C95.6283 68.1883 95.7738 67.9984 95.6395 67.751Z" fill="black"/>
<path d="M187.211 80.0182C184.263 82.8951 179.042 81.7041 175.019 81.0309C171.535 80.4541 168.133 79.4436 164.886 78.0217C162.049 76.7788 158.659 75.2598 156.107 77.0435C155.134 77.7225 154.462 78.8099 153.438 79.4083C152.414 80.0067 151.122 80.047 149.919 80.0585C146.002 80.0585 142.086 80.1103 138.258 79.1954C132.562 77.826 126.665 74.391 121.243 76.6522C117.002 78.4302 114.702 83.1771 113.555 87.7398C112.996 89.9781 112.587 92.3429 111.317 94.2416C110.047 96.1404 107.602 97.4868 105.526 96.6007C102.455 95.2773 102.001 89.9205 98.2972 89.6501C95.4045 89.4372 94.5988 91.5661 94.7946 93.9309C94.9625 92.1242 95.9137 90.7318 98.2972 90.9044C102.001 91.1749 102.455 96.5374 105.526 97.855C107.602 98.7469 110.053 97.4062 111.317 95.496C112.582 93.5857 112.996 91.2324 113.555 88.9999C114.702 84.4371 117.002 79.6845 121.243 77.9123C126.665 75.6453 132.562 79.0631 138.258 80.4555C142.063 81.3704 146.013 81.3416 149.919 81.3128C151.122 81.3128 152.392 81.2783 153.438 80.6684C154.485 80.0585 155.117 78.9825 156.107 78.2978C158.659 76.5199 162.049 78.0389 164.886 79.276C168.133 80.6972 171.536 81.7095 175.019 82.291C179.042 82.9584 184.263 84.161 187.211 81.2725C188.811 79.7018 189.293 77.429 189.186 74.9434C189.097 76.9169 188.537 78.7064 187.211 80.0182Z" fill="black"/>
<path d="M103.876 51.3296C103.845 51.6161 103.834 51.9045 103.842 52.1927C103.898 53.3895 104.34 54.5862 104.48 55.7543C104.687 54.3216 104.044 52.8256 103.876 51.3296Z" fill="black"/>
<path d="M92.5062 92.1531C92.5523 92.3251 92.5878 92.5 92.6125 92.6767C92.7032 92.0831 92.6669 91.4764 92.5062 90.8988C92.1726 90.0769 91.7681 89.2874 91.2976 88.5397C90.8772 87.6886 90.6279 86.759 90.5646 85.8066C90.4509 87.1815 90.7043 88.5622 91.2976 89.7998C91.7692 90.5448 92.1737 91.3325 92.5062 92.1531Z" fill="black"/>
<path d="M99.4499 113.43L96.1766 113.379C96.253 113.582 96.2836 113.8 96.2662 114.018C96.2487 114.235 96.1837 114.445 96.0759 114.633C96.9991 114.633 98.5322 114.667 99.4331 114.69C99.5896 113.706 99.644 112.707 99.5953 111.71C99.5826 112.286 99.534 112.861 99.4499 113.43Z" fill="black"/>
<path d="M94.0953 110.248C92.758 109.834 91.2025 109.828 90.2066 108.821C89.6203 108.162 89.2898 107.304 89.2777 106.411C89.1938 107.734 89.2778 109.161 90.2066 110.082C91.2025 111.088 92.758 111.094 94.0953 111.509C94.5303 111.639 94.935 111.859 95.2842 112.156C95.6335 112.453 95.9201 112.82 96.1263 113.235C96.6914 112.044 95.3933 110.645 94.0953 110.248Z" fill="black"/>
</g>
<path opacity="0.1" d="M195.889 368.928C195.263 368.554 194.625 368.203 193.976 367.87C192.639 367.176 191.268 366.554 189.869 366.005C183.406 363.474 176.485 362.553 169.469 362.708C166.671 363.807 164.852 364.596 164.852 364.596L161.294 365.7L160.701 365.884C160.662 365.482 160.617 365.079 160.578 364.67C160.539 364.262 160.494 363.871 160.449 363.468C159.196 351.264 158.211 338.727 158.211 338.727V327.898V326.638L158.144 294.733L157.584 284.215L157.321 279.56L157.271 278.674L157.17 276.856L157.114 275.774C156.991 275.431 156.886 275.082 156.801 274.727C156.762 274.583 156.723 274.422 156.689 274.255C156.549 273.68 156.398 272.937 156.241 272.132C155.217 266.838 153.936 257.914 153.858 256.102C153.757 253.685 151.72 239.232 151.72 239.232C151.513 231.274 145.006 216.291 143.367 213.466C141.727 210.641 139.898 193.667 140.513 192.752C140.832 192.263 141.039 189.369 141.168 186.699C141.168 186.394 141.196 186.095 141.207 185.802C141.291 183.713 141.33 181.97 141.33 181.97L147.731 180.669L149.449 180.324L149.583 180.295L149.639 180.41C149.824 180.761 150.4 181.883 151.077 183.356C151.155 183.512 151.228 183.679 151.306 183.846C151.34 183.926 151.379 184.007 151.418 184.087C152.672 186.907 154.121 190.618 154.059 192.752C153.959 196.527 158.138 205.641 158.138 205.641C158.541 207.735 167.404 228.576 167.404 228.576C167.404 228.576 174.639 249.002 174.23 252.356C173.822 255.711 177.694 277.915 177.694 277.915L181.666 300.751C183.597 305.251 186.142 315.619 186.142 315.619L187.11 321.5L187.295 322.622L189.874 338.312L191.139 345.999C191.139 345.999 191.67 350.085 192.476 354.63C192.543 355.039 192.622 355.453 192.7 355.867C193.196 358.859 193.901 361.811 194.809 364.699C195.26 366.083 195.62 367.496 195.889 368.928Z" fill="black"/>
<path d="M196.583 369.337C196.354 369.199 196.124 369.061 195.889 368.929C195.263 368.555 194.625 368.204 193.976 367.87C192.639 367.177 191.268 366.554 189.869 366.006C183.406 363.474 176.485 362.553 169.469 362.709C166.671 363.808 164.852 364.596 164.852 364.596L161.294 365.701C161.249 365.298 161.21 364.895 161.165 364.487C161.12 364.078 161.087 363.75 161.053 363.382C159.8 351.207 158.815 338.727 158.815 338.727V327.795V326.534L158.748 294.71L158.189 284.664L158.077 282.581L157.998 281.171L157.898 279.307L157.797 277.414L157.724 276.051V275.751C157.724 275.723 157.724 275.688 157.685 275.654C157.579 275.343 157.45 274.871 157.31 274.273L157.243 273.985C157.215 273.853 157.181 273.709 157.153 273.565C156.102 268.657 154.557 258.076 154.473 256.091C154.373 253.674 152.336 239.22 152.336 239.22C152.129 231.263 145.622 216.28 143.982 213.455C142.343 210.63 140.519 193.656 141.129 192.741C141.481 192.166 141.688 188.673 141.822 185.791C141.822 185.56 141.822 185.336 141.822 185.123C141.895 183.345 141.923 181.959 141.923 181.959L147.877 180.75L149.387 180.445L149.622 180.399L150.182 180.284C150.182 180.284 150.915 181.677 151.793 183.593L151.905 183.834C153.186 186.677 154.703 190.543 154.658 192.741C154.557 196.516 158.737 205.63 158.737 205.63C159.14 207.724 168.003 228.564 168.003 228.564C168.003 228.564 175.237 248.99 174.829 252.345C174.42 255.699 178.292 277.903 178.292 277.903L182.265 300.74C184.195 305.24 186.741 315.608 186.741 315.608L187.642 321.086L187.827 322.196L189.858 334.578L191.732 345.988C191.732 345.988 192.292 350.056 193.064 354.619C193.136 355.033 193.209 355.447 193.288 355.867C193.783 358.873 194.488 361.838 195.397 364.74C195.893 366.243 196.289 367.779 196.583 369.337Z" fill="#63667E"/>
<path d="M191.536 73.8271C191.536 73.8271 189.399 76.658 187.469 76.658C185.538 76.658 178.024 76.3415 174.107 75.0872C170.19 73.8329 150.988 72.8835 150.988 72.8835C150.988 72.8835 123.795 72.9871 122.877 72.0434C121.959 71.0998 105.968 66.071 104.34 66.3874C103.999 66.4565 103.165 66.6061 102.052 66.796L100.776 67.0089C98.8456 67.3253 96.434 67.6936 94.2295 67.964C91.5046 68.292 89.1098 68.4588 88.3489 68.1711V65.7603C88.3489 65.7603 91.5046 61.0422 91.706 59.69C91.9074 58.3379 94.5596 38.7346 101.487 31.7207C104.348 26.0953 108.979 21.6332 114.624 19.0624C123.996 14.8678 133.368 11.312 133.368 11.312L135.008 11.0703L140.295 10.2648C140.456 10.1003 140.63 9.95012 140.815 9.81601C142.281 8.66524 146.724 6.16234 152.515 11.5421L153.539 13.2223C153.539 13.2223 171.36 17.5146 179.607 32.4918C187.855 47.4689 188.269 62.1354 188.879 68.8386C188.879 68.8386 188.47 70.7258 189.287 71.4565C189.583 71.7252 189.865 72.0094 190.132 72.3081C190.205 72.3829 190.277 72.4577 190.345 72.5383C190.58 72.7799 190.798 73.0331 190.977 73.2402C190.998 73.2564 191.017 73.2758 191.033 73.2978C191.076 73.3523 191.123 73.4041 191.173 73.4531L191.536 73.8271Z" fill="#FED253"/>
<path opacity="0.05" d="M191.536 73.8271C191.536 73.8271 189.399 76.6579 187.469 76.6579C185.538 76.6579 178.024 76.3415 174.107 75.0871C170.191 73.8328 150.988 72.8834 150.988 72.8834C150.988 72.8834 123.795 72.987 122.877 72.0434C121.96 71.0997 105.968 66.0709 104.34 66.3874C103.999 66.4564 103.165 66.606 102.052 66.7959L101.761 64.9547L101.688 64.5001C101.688 64.5001 132.551 57.6934 153.125 61.2607C173.699 64.8281 188.879 68.7982 188.879 68.7982C188.879 68.7982 188.47 70.6855 189.287 71.4162C189.583 71.6849 189.865 71.9691 190.132 72.2678C190.205 72.3426 190.277 72.4174 190.345 72.4979C190.58 72.7396 190.798 72.9927 190.977 73.1999C190.998 73.2161 191.017 73.2355 191.033 73.2574C191.077 73.3118 191.123 73.3637 191.173 73.4128L191.536 73.8271Z" fill="black"/>
<path opacity="0.1" d="M188.733 78.4303C184.923 78.7352 177.901 77.7801 174.829 77.314C173.956 77.1817 173.1 77.0206 172.238 76.8249C168.943 76.0885 158.81 74.0228 152.655 74.978C145.219 76.1287 124.237 74.0343 124.237 74.0343C124.237 74.0343 111.3 71.3128 106.102 69.1148C104.194 68.3036 101.005 68.0504 97.8327 68.4531C97.0236 68.5569 96.2205 68.7048 95.4267 68.8962C91.096 69.9491 87.4423 72.3485 88.0746 76.4394C87.8325 76.1411 87.6083 75.8279 87.4032 75.5016C87.129 71.7616 88.2592 69.5349 89.8259 68.223L90.1952 68.0676C92.109 67.5084 94.0567 67.0798 96.0254 66.7845C96.3332 66.7328 96.6521 66.6867 96.9766 66.6465C102.544 65.8754 110.595 65.7028 117.388 69.2184C117.388 69.2184 123.699 72.2622 127.98 72.2622C132.26 72.2622 167.091 72.5786 175.243 74.9837C176.866 75.4659 178.521 75.8255 180.195 76.0597C183.167 76.4537 186.187 76.1608 189.035 75.2024C189.093 76.2878 188.992 77.3761 188.733 78.4303Z" fill="black"/>
<path opacity="0.1" d="M191.536 73.8269C191.536 73.8269 189.399 76.6578 187.469 76.6578C185.538 76.6578 178.024 76.3413 174.107 75.087C170.19 73.8326 150.988 72.8833 150.988 72.8833C150.988 72.8833 123.795 72.9868 122.877 72.0432C121.959 71.0996 105.968 66.0708 104.34 66.3872C103.999 66.4563 103.165 66.6059 102.052 66.7957L100.776 67.0086C98.5601 66.997 96.3546 67.3188 94.2295 67.9638C91.5046 68.2917 89.1098 68.4586 88.3489 68.1709V67.6933C88.9356 67.3432 89.5472 67.0393 90.1785 66.7842C93.9542 65.697 97.8422 65.075 101.761 64.9315C106.645 64.7474 112.358 65.3343 117.377 67.935C117.377 67.935 123.688 70.9788 127.969 70.9788C132.249 70.9788 167.08 71.2895 175.232 73.7003C176.855 74.178 178.51 74.5356 180.184 74.7705C183.855 75.2463 187.584 74.6957 190.977 73.1767C190.998 73.1929 191.017 73.2123 191.033 73.2343C191.077 73.2887 191.123 73.3405 191.173 73.3896L191.536 73.8269Z" fill="black"/>
<path d="M88.1531 76.3417C88.1531 76.3417 81.3269 70.9964 90.1898 67.4348C90.1898 67.4348 105.672 62.5153 117.388 68.5856C117.388 68.5856 123.7 71.6178 127.98 71.6178C132.26 71.6178 167.091 71.9343 175.243 74.3451C176.867 74.8234 178.521 75.181 180.195 75.4153C184.532 75.9561 188.925 75.0976 192.767 72.9585C193.327 72.642 193.83 72.4809 193.981 72.665C194.491 73.2979 194.088 76.9631 189.606 77.6938C186.109 78.2692 178.164 77.1818 174.823 76.6812C173.956 76.5488 173.094 76.382 172.238 76.1921C168.943 75.4556 158.81 73.39 152.627 74.3451C145.197 75.4959 124.209 73.4015 124.209 73.4015C124.209 73.4015 111.278 70.68 106.08 68.4762C100.882 66.2725 86.2172 68.1713 88.1531 76.3417Z" fill="#FED253"/>
<path opacity="0.1" d="M145.7 20.1784C145.141 19.3498 137.951 13.4292 135.019 11.0356L140.306 10.23C140.467 10.0655 140.641 9.91537 140.827 9.78125C144.671 13.9297 145.7 20.1784 145.7 20.1784Z" fill="black"/>
<path opacity="0.1" d="M122.379 51.9339L120.035 55.4955L128.998 55.1848L129.2 51.2031L122.379 51.9339Z" fill="black"/>
<path opacity="0.1" d="M177.073 56.2319L178.091 59.4771L183.798 60.4207L181.353 56.5426L177.073 56.2319Z" fill="black"/>
<path opacity="0.1" d="M79.0886 165.175C79.6985 166.222 99.763 193.368 105.062 192.615C110.36 191.861 79.0886 165.175 79.0886 165.175Z" fill="black"/>
<path opacity="0.1" d="M146.315 189.985C146.315 189.985 151.206 194.807 150.489 196.688C149.773 198.57 146.315 189.985 146.315 189.985Z" fill="black"/>
<path opacity="0.1" d="M92.9426 223.086C92.9426 223.086 88.6622 243.72 90.9059 244.376C93.1496 245.031 92.9426 223.086 92.9426 223.086Z" fill="black"/>
<path opacity="0.1" d="M147.944 303.214C148.654 305.309 154.563 318.928 155.889 319.659C157.215 320.389 147.944 303.214 147.944 303.214Z" fill="black"/>
<path opacity="0.1" d="M216.597 247.281C216.39 248.012 211.299 252.31 212.418 253.881C213.537 255.452 216.597 247.281 216.597 247.281Z" fill="black"/>
<path opacity="0.1" d="M177.073 285.51C176.972 286.039 175.954 297.017 177.89 299.129C179.826 301.241 177.073 285.51 177.073 285.51Z" fill="black"/>
<path opacity="0.1" d="M229.265 342.541C227.788 343.387 226.26 344.204 224.705 344.987C223.026 345.827 221.348 346.627 219.636 347.38C218.953 347.685 218.27 347.984 217.593 348.272C216.564 348.709 215.546 349.129 214.538 349.532C211.478 350.764 208.529 351.834 205.905 352.737C204.887 353.088 203.913 353.41 203.007 353.709C198.441 355.2 195.408 356.011 195.408 356.011C194.716 355.858 194.007 355.799 193.299 355.833C193.103 355.833 192.902 355.833 192.695 355.833C191.747 355.903 190.804 356.026 189.869 356.201C183.619 357.352 174.79 360.58 169.469 362.691C166.671 363.79 164.853 364.578 164.853 364.578L161.294 365.683L160.701 365.867C156.846 367.076 151.424 368.79 149.471 369.504C146.316 370.654 118.916 376.518 118.916 376.518C116.413 377.22 113.856 377.701 111.273 377.956C104.908 378.557 98.5105 378.707 92.1257 378.405C85.7136 378.831 75.34 377.381 69.3028 376.402L68.3404 376.247C66.0072 375.856 64.5244 375.574 64.5244 375.574L65.3078 374.463L81.3717 351.673L81.4668 351.535L96.4341 330.309L96.9936 329.538L98.3532 327.61C98.3532 327.61 99.1701 326.459 102.315 326.385C102.684 326.385 103.087 326.385 103.529 326.385C106.17 326.603 108.776 327.15 111.289 328.013L112.017 328.237C122.855 331.431 139.607 330.631 139.607 330.631C139.607 330.631 150.031 328.905 158.222 327.869L158.832 327.789C161.509 327.4 164.204 327.16 166.906 327.069C171.897 327.173 182.696 324.451 182.696 324.451C185.018 323.939 185.997 323.508 187.306 322.547C187.48 322.42 187.664 322.282 187.866 322.133C188.425 321.701 189.069 321.172 189.897 320.516C191.408 319.325 193.528 317.708 196.863 315.441C197.154 315.245 197.462 315.05 197.792 314.866C198.122 314.681 198.542 314.434 198.944 314.227C202.174 312.654 205.579 311.495 209.083 310.775C211.99 310.132 214.939 309.715 217.907 309.526H218.349C226.742 309.066 235.314 310.544 240.327 315.395C241.203 316.247 241.967 317.215 242.599 318.272C242.905 318.774 243.178 319.297 243.415 319.837C243.873 320.867 244.213 321.948 244.428 323.059C244.469 323.266 244.503 323.473 244.529 323.68C244.529 323.744 244.529 323.801 244.529 323.864C244.529 324.031 244.562 324.198 244.574 324.365C245.021 331.252 238.072 337.478 229.265 342.541Z" fill="black"/>
<path d="M64.5244 374.337C64.5244 374.337 82.653 377.789 92.1257 377.162C92.1257 377.162 109.544 378.106 118.916 375.28C118.916 375.28 146.332 369.412 149.471 368.261C152.61 367.11 164.853 363.336 164.853 363.336C164.853 363.336 188.688 353.071 195.408 354.745C195.408 354.745 248.171 340.712 244.4 321.753C240.629 302.794 207.326 307.092 196.841 314.21C186.355 321.327 187.888 322.069 182.685 323.22C182.685 323.22 171.886 325.942 166.895 325.838C161.904 325.734 139.596 329.4 139.596 329.4C139.596 329.4 122.077 330.24 111.284 326.782C100.491 323.324 98.3476 326.362 98.3476 326.362L64.5244 374.337Z" fill="#FFA2A2"/>
<path opacity="0.1" d="M103.836 325.131C103.839 325.153 103.839 325.177 103.836 325.2C103.797 325.627 103.69 326.045 103.517 326.437C101.369 331.857 89.1713 346.477 89.1713 346.477C88.6152 348.214 87.9441 349.91 87.1626 351.552C85.4819 355.063 83.546 358.438 81.3715 361.65C78.1483 366.455 74.6291 371.042 70.8357 375.384H70.8077C70.325 375.753 69.8225 376.093 69.3026 376.403C67.9877 377.208 66.0126 378.204 64.1494 378.324C63.8321 378.344 63.5138 378.334 63.1982 378.296C63.394 378.296 63.5843 378.25 63.7577 378.215L63.0751 378.008L62.1407 377.709C60.574 377.202 59.0204 376.648 57.4799 376.046L56.5454 375.678C55.0534 375.087 53.593 374.452 52.1644 373.773L51.23 373.336C49.7379 372.622 48.2775 371.869 46.8489 371.075C46.3341 370.798 45.825 370.499 45.3214 370.217C43.7995 369.343 42.3074 368.426 40.8452 367.467C39.2935 366.451 37.7753 365.39 36.2907 364.285C35.1716 362.151 34.2484 360.258 33.7448 359.239C32.8272 357.346 32.7489 354.636 32.8608 352.674C32.8608 352.473 32.8608 352.283 32.8944 352.099C32.9895 350.867 33.135 350.022 33.135 350.022C32.3059 348.882 31.5579 347.682 30.8969 346.431C30.5171 345.81 30.3011 345.098 30.2702 344.366C30.2955 344.072 30.269 343.775 30.1919 343.491C29.761 341.673 27.909 338.548 26.1969 336.586C24.9212 335.142 24.8428 329.745 24.9659 325.919C25.0386 323.617 25.1785 321.926 25.1785 321.926C24.9278 321.759 24.7402 321.509 24.647 321.218C24.1971 319.959 23.8928 318.649 23.7406 317.317C23.7406 317.127 23.6902 316.937 23.6622 316.741C23.3041 314.1 23.1419 311.448 23.1419 311.448C19.0014 308.347 17.0319 303.508 16.1142 299.192L15.9967 298.617C15.4928 295.965 15.2788 293.263 15.3589 290.562C15.3589 290.303 15.3589 290.107 15.3589 289.986C15.3589 289.865 15.3589 289.842 15.3589 289.842C15.3589 289.842 15.9072 277.374 17.4403 272.506C17.5019 272.299 17.569 272.109 17.6361 271.931C17.7491 271.625 17.8955 271.334 18.0726 271.062C18.6321 270.297 19.0294 268.853 19.3595 267.144C19.5889 265.958 19.7791 264.641 19.919 263.329C20.0477 262.236 20.1484 261.148 20.2267 260.141C20.445 257.448 20.5121 255.348 20.5121 255.348L19.477 250.101C19.1916 248.668 18.9734 247.224 18.8223 245.78C18.8223 245.59 18.7776 245.4 18.7552 245.204C18.4935 242.537 18.4467 239.853 18.6153 237.178C18.6153 236.982 18.6153 236.792 18.6489 236.602C19.0858 230.51 20.6347 224.556 23.2146 219.053L23.4944 218.478C23.8674 217.711 24.259 216.957 24.6694 216.217C24.9659 215.67 25.2792 215.129 25.6038 214.594C26.4641 213.161 27.3979 211.776 28.4014 210.446C28.5469 210.25 28.6979 210.06 28.849 209.87C30.5949 207.644 32.5352 205.587 34.6457 203.725C40.2969 198.731 45.4837 196.562 50.1948 196.395C70.7965 195.647 82.3507 233.116 84.2195 239.681C84.3986 240.314 84.4881 240.659 84.4881 240.659C84.4881 240.659 92.8362 249.249 90.3911 253.018C89.917 253.848 89.6284 254.775 89.5462 255.734C88.8747 260.803 90.7995 269.152 90.7995 269.152C90.7995 269.152 91.4821 271.453 93.474 276.965L94.0615 278.576C95.3093 282.029 95.6002 287.823 94.884 293.013C94.1958 297.984 92.5788 302.38 89.9882 303.508C84.6895 305.809 86.1163 308.111 87.3361 310.004C88.0609 311.361 88.6657 312.782 89.1433 314.25C89.9099 316.373 90.6205 318.606 90.889 319.475C90.9674 319.716 91.0065 319.849 91.0065 319.849C91.7487 319.553 92.5197 319.341 93.3062 319.216C94.3077 319.072 95.2981 319.175 95.4883 320.056C95.589 320.527 96.1653 321.086 96.9767 321.644C99.3826 323.347 103.836 325.131 103.836 325.131Z" fill="black"/>
<path d="M102.617 325.13C102.582 325.568 102.474 325.996 102.298 326.396C100.16 331.822 87.9515 346.477 87.9515 346.477C87.393 348.213 86.7219 349.908 85.9428 351.552C84.5926 354.387 83.0656 357.13 81.3715 359.762C77.864 365.203 73.9782 370.376 69.7446 375.24L69.6159 375.384C69.6159 375.384 69.1235 375.77 68.3402 376.264C66.9405 377.183 65.3982 377.849 63.7801 378.232L63.0974 378.025L62.163 377.726C60.5964 377.219 59.0428 376.665 57.5022 376.063L56.5678 375.695C55.0757 375.104 53.6154 374.469 52.1867 373.79L51.2523 373.353C49.7603 372.639 48.2999 371.886 46.8713 371.092C46.3565 370.816 45.8473 370.516 45.3437 370.234C43.8218 369.36 42.3298 368.443 40.8676 367.484C39.3158 366.468 37.7976 365.407 36.313 364.302C35.6267 363.796 34.9478 363.276 34.2764 362.743C33.521 361.27 32.9167 360.027 32.5418 359.256C31.6242 357.363 31.5459 354.653 31.6578 352.691C31.6578 352.49 31.6578 352.3 31.6914 352.116C31.7865 350.884 31.932 350.038 31.932 350.038C31.932 350.038 31.4787 349.411 30.9304 348.56C30.6227 348.088 30.2926 347.541 29.996 347.001C29.4365 345.988 29 344.964 29.084 344.383C29.0953 344.283 29.0953 344.183 29.084 344.083C29.0756 343.889 29.0474 343.696 29.0001 343.508C28.5692 341.69 26.7116 338.565 24.9995 336.603C23.7237 335.159 23.6454 329.762 23.7629 325.936C23.7629 325.74 23.7629 325.55 23.7629 325.36C23.8412 323.375 23.9587 321.943 23.9587 321.943C23.3265 321.661 22.8397 319.572 22.5264 317.34L22.4424 316.764C22.0843 314.123 21.9221 311.471 21.9221 311.471C17.7816 308.369 15.8121 303.53 14.9 299.215C14.2647 296.193 14.0201 293.097 14.1727 290.009C14.1727 289.917 14.1727 289.865 14.1727 289.865C14.1727 289.865 14.6539 277.333 16.187 272.46C16.2485 272.253 16.3156 272.063 16.3828 271.885C16.517 271.586 16.6841 271.304 16.8808 271.044C17.7312 269.825 18.2964 266.89 18.6656 263.887L18.7328 263.311C19.1972 259.284 19.3259 255.331 19.3259 255.331L18.2852 250.083C18.0017 248.645 17.7835 247.205 17.6305 245.762C17.6025 245.572 17.5858 245.377 17.5634 245.187C17.3017 242.52 17.255 239.835 17.4235 237.16C17.4235 236.965 17.4235 236.775 17.4627 236.585C17.8969 230.492 19.4459 224.538 22.0284 219.036C22.1179 218.84 22.2074 218.65 22.3081 218.46C23.0276 216.966 23.827 215.514 24.7029 214.111C25.0051 213.621 25.3128 213.138 25.6373 212.661C26.1465 211.901 26.678 211.153 27.232 210.428L27.6796 209.853C29.4106 207.635 31.3339 205.584 33.4259 203.725C39.5807 198.299 45.1759 196.205 50.2116 196.395C70.0467 197.125 81.1813 233.248 83.0109 239.68C83.1899 240.313 83.2795 240.659 83.2795 240.659C83.2795 240.659 91.6332 249.249 89.188 253.018C88.714 253.847 88.4254 254.775 88.3432 255.734C87.6661 260.803 89.5965 269.151 89.5965 269.151C89.5965 269.151 90.2791 271.453 92.271 276.965C92.4501 277.477 92.6459 278.012 92.8306 278.576C94.0783 282.029 94.3692 287.823 93.6531 293.013C92.9648 297.99 91.3534 302.38 88.7572 303.507C83.4641 305.809 84.8853 308.111 86.1107 310.004C86.8355 311.36 87.4403 312.782 87.9179 314.25C88.8859 316.96 89.7755 319.848 89.7755 319.848C90.1417 319.703 90.5153 319.578 90.8946 319.474C91.673 319.211 92.4973 319.123 93.3117 319.215C93.5371 319.233 93.7512 319.324 93.9231 319.475C94.095 319.626 94.2159 319.829 94.2685 320.055C94.4196 320.746 95.5778 321.603 96.9822 322.414C98.8058 323.435 100.687 324.342 102.617 325.13Z" fill="#CED7E7"/>
<path opacity="0.1" d="M28.9722 269.802C30.9081 269.698 51.6888 261.424 55.9692 264.249C60.2496 267.074 86.743 285.406 86.743 285.406C86.743 285.406 70.1419 263.099 55.6783 257.863C41.2146 252.627 28.9722 269.802 28.9722 269.802Z" fill="black"/>
<path opacity="0.1" d="M58.8452 303.531C58.8452 303.531 79.6259 307.823 82.7817 310.758L58.8452 303.531Z" fill="black"/>
<path opacity="0.1" d="M54.8446 335.487C54.5425 335.804 47.0113 353.186 47.6156 353.186C48.2198 353.186 54.6432 342.829 54.6432 342.829L54.8446 335.487Z" fill="black"/>
<path opacity="0.1" d="M69.006 314.63C69.006 314.63 62.896 316.834 63.6066 317.041C64.3172 317.248 68.799 315.574 69.006 314.63Z" fill="black"/>
<path opacity="0.1" d="M62.896 340.925C63.9143 343.123 67.1708 349.722 67.887 348.675C68.6031 347.628 62.896 340.925 62.896 340.925Z" fill="black"/>
<path opacity="0.1" d="M139.171 166.711L138.298 167.988C138.298 167.988 131.365 162.965 128.517 160.451C125.669 157.936 118.944 169.455 113.645 172.597C108.346 175.738 99.3884 176.579 99.3884 176.579C99.3884 176.579 92.4614 169.455 92.6741 167.372C92.8867 165.29 89.4176 164.651 89.2106 163.184C89.0036 161.716 87.7838 157.528 86.1556 155.433C85.2939 154.329 85.1708 150.871 85.2492 147.861C85.8087 147.746 86.1556 147.683 86.1556 147.683C87.0253 146.058 88.1246 144.574 89.4176 143.281C91.2529 141.607 94.1008 131.342 94.1008 131.342C95.7291 125.686 98.9855 127.36 98.9855 127.36C98.9855 135.951 107.546 139.092 111.821 142.654C116.096 146.216 122.821 155.433 128.12 157.321C132.467 158.845 137.553 164.743 139.171 166.711Z" fill="black"/>
<path d="M139.17 165.451L138.298 166.734C138.298 166.734 131.337 161.722 128.489 159.191C125.641 156.659 118.916 168.195 113.617 171.337C108.318 174.478 99.3603 175.324 99.3603 175.324C99.3603 175.324 92.4334 168.195 92.646 166.118C92.8586 164.041 89.3896 163.397 89.1825 161.924C88.9755 160.451 87.7557 156.268 86.1275 154.173C85.2659 153.068 85.1428 149.61 85.2211 146.601L86.1275 146.429C86.9972 144.804 88.0965 143.32 89.3896 142.027C91.2248 140.347 94.0728 130.088 94.0728 130.088C95.701 124.432 98.9574 126.1 98.9574 126.1C98.9574 134.691 107.518 137.838 111.793 141.4C116.068 144.961 122.793 154.173 128.092 156.06C132.467 157.608 137.553 163.483 139.17 165.451Z" fill="#CED7E7"/>
<path opacity="0.1" d="M139.691 167.154C139.691 167.154 133.687 170.502 128.998 170.819C128.385 170.848 127.769 170.812 127.163 170.71C127.163 170.71 132.339 166.734 137.145 165.922L139.691 167.154Z" fill="black"/>
<path opacity="0.1" d="M151.916 184.225C151.916 184.225 144.346 181.193 141.845 185.756C141.929 183.661 141.962 181.924 141.962 181.924L150.215 180.244C150.215 180.244 151.01 181.757 151.939 183.794C151.916 184.064 151.916 184.225 151.916 184.225Z" fill="black"/>
<path d="M127.163 170.71C127.163 170.71 136.233 165.111 140.592 165.583C145.163 166.072 154.02 166.417 154.02 166.417C154.02 166.417 150.965 173.54 151.374 175.008C151.782 176.475 151.883 183.598 151.883 183.598C151.883 183.598 142.718 179.933 141.19 186.74C141.19 186.74 136.199 179.093 132.837 176.786C130.605 175.128 128.683 173.069 127.163 170.71Z" fill="#63667E"/>
<path opacity="0.1" d="M178.399 177.212C175.752 177.212 166.38 171.13 164.343 167.154C162.307 163.178 159.453 167.568 156.807 169.041C155.128 169.985 148.475 168.011 144.889 166.579C146.707 165.307 150.736 161.728 151.916 160.871C153.337 159.818 154.77 142.85 154.77 142.85C159.862 140.128 165.362 164.847 165.362 164.847C165.362 164.847 174.941 167.781 175.752 169.876C175.909 170.29 176.63 171.026 177.716 171.918C178.835 174.818 179.45 177.212 178.399 177.212Z" fill="black"/>
<path d="M178.399 175.951C175.752 175.951 166.38 169.875 164.343 165.899C162.307 161.923 159.453 166.314 156.807 167.781C155.128 168.724 149.796 166.901 146.209 165.479C148.028 164.213 150.736 160.485 151.916 159.622C153.338 158.575 154.77 141.607 154.77 141.607C159.862 138.885 165.362 163.604 165.362 163.604C165.362 163.604 174.941 166.538 175.752 168.632C175.909 169.047 176.631 169.783 177.716 170.675C178.835 173.558 179.451 175.951 178.399 175.951Z" fill="#CED7E7"/>
<path d="M214.594 359.481L303.173 283.53C304.056 282.763 305.183 282.353 306.339 282.38L339.385 283.271C339.385 283.271 341.673 284.998 338.316 288.772L254.757 359.285C253.854 360.044 252.733 360.477 251.568 360.516L215.434 361.748C215.174 361.756 214.919 361.681 214.703 361.533C214.486 361.385 214.321 361.171 214.228 360.922C214.136 360.672 214.122 360.399 214.187 360.141C214.253 359.883 214.395 359.652 214.594 359.481Z" fill="#85CBFE"/>
<path d="M257.443 350.136C257.443 350.136 276.791 378.629 298.288 352.127C319.785 325.625 313.568 311.701 307.05 310.964C300.532 310.228 263.855 339.244 257.443 350.136Z" fill="#FFA2A2"/>
<path opacity="0.1" d="M387.94 31.4562C387.94 31.4562 412.878 -18.3143 442.354 7.35348C442.354 7.35348 448.789 9.76432 448.302 16.761C448.302 16.761 445.823 15.3628 443.854 20.7081C443.13 22.6047 442.191 24.4067 441.056 26.0764C439.547 28.3319 437.368 30.0238 434.845 30.8981C434.845 30.8981 421.618 41.0881 397.117 33.2284C397.117 33.2284 390.19 34.2525 389.071 33.3664L397.122 27.3134C397.122 27.3134 401.212 33.5563 407.194 34.2698C407.194 34.2698 397.122 27.768 398.275 26.3583C398.51 26.0706 402.684 23.3491 402.684 23.3491C402.684 23.3491 409.84 34.172 419.117 34.9718C419.117 34.9718 406.119 28.8785 404.256 22.3134L410.786 18.5676C410.786 18.5676 417.802 30.3917 428.338 31.7151C428.338 31.7151 414.965 24.8623 412.269 17.8484L419.179 15.0751C419.179 15.0751 426.245 26.4676 435.013 27.5091C435.013 27.5091 420.342 17.9865 420.801 14.5457C420.801 14.5457 427.297 12.3938 429.289 12.6757C429.289 12.6757 434.543 20.7311 439.691 20.8749C439.691 20.8749 430.543 13.441 431.147 12.296C431.147 12.296 440.334 11.8069 445.135 14.0912C445.135 14.0912 438.309 10.1844 431.147 10.8173C431.147 10.8173 434.387 6.89893 438.611 6.03586C438.611 6.03586 433.547 3.89544 428.92 10.9611C428.92 10.9611 421.775 11.6343 420.891 12.4514C420.891 12.4514 424.505 4.8103 428.954 1.55939C428.954 1.55939 422.323 2.76194 419.039 13.1188L412.034 15.7483C412.034 15.7483 416.292 5.39143 420.046 2.19231C420.046 2.19231 413.466 4.49384 410.321 16.5768L403.876 20.1787C403.876 20.1787 406.88 10.9726 410.31 6.4789C410.31 6.4789 404.653 9.96571 402.063 21.2777L398.034 24.1949C398.034 24.1949 400.345 17.5089 401.179 15.6505C402.012 13.792 401.593 13.4065 401.593 13.4065C398.792 16.8111 396.966 20.9482 396.317 25.3571C396.317 25.3571 388.405 31.9165 387.94 31.4562Z" fill="#85CBFE"/>
<path opacity="0.1" d="M491.077 58.0731C491.077 58.0731 502.346 35.5814 515.663 47.1811C515.663 47.1811 518.572 48.2686 518.349 51.4274C518.349 51.4274 517.23 50.8003 516.34 53.2169C516.018 54.0728 515.597 54.8861 515.087 55.6392C514.406 56.6559 513.425 57.4205 512.289 57.8199C512.289 57.8199 506.308 62.423 495.235 58.8729C495.235 58.8729 492.107 59.3332 491.603 58.9362L495.24 56.1973C495.24 56.1973 497.087 59.0225 499.795 59.3389C499.795 59.3389 495.251 56.4045 495.766 55.7658C495.867 55.6392 497.753 54.4079 497.753 54.4079C497.753 54.4079 500.987 59.2986 505.183 59.6611C505.183 59.6611 499.308 56.9051 498.469 53.9073L501.423 52.2215C501.423 52.2215 504.59 57.5667 509.351 58.1651C509.351 58.1651 503.309 55.0696 502.078 51.8992L505.2 50.6449C505.2 50.6449 508.389 55.7946 512.351 56.2664C512.351 56.2664 505.72 51.9625 505.933 50.409C505.933 50.409 508.865 49.4366 509.766 49.5632C509.766 49.5632 512.138 53.2054 514.465 53.2629C514.465 53.2629 510.331 49.9084 510.605 49.3906C510.605 49.3906 514.756 49.1719 516.916 50.2019C516.916 50.2019 513.833 48.4355 510.605 48.7231C511.495 47.6815 512.662 46.9297 513.962 46.5597C513.962 46.5597 511.673 45.5931 509.581 48.7864C509.581 48.7864 506.352 49.0914 505.955 49.4596C505.955 49.4596 507.589 46.0073 509.598 44.5401C509.598 44.5401 506.599 45.081 505.121 49.7646L501.988 50.9729C501.988 50.9729 503.907 46.295 505.608 44.8451C505.608 44.8451 502.632 45.8865 501.21 51.3411L498.301 52.9637C498.301 52.9637 499.655 48.7979 501.205 46.7726C501.205 46.7726 498.648 48.3491 497.484 53.4585L495.66 54.7762C495.66 54.7762 496.706 51.7554 497.081 50.9153C497.456 50.0753 497.266 49.9027 497.266 49.9027C496 51.4465 495.175 53.3205 494.882 55.317C494.882 55.317 491.273 58.2802 491.077 58.0731Z" fill="#85CBFE"/>
<path opacity="0.1" d="M368.973 84.2415C368.973 84.2415 380.241 61.7499 393.592 73.3496C393.592 73.3496 396.496 74.437 396.277 77.6016C396.277 77.6016 395.158 76.9687 394.269 79.3853C393.944 80.2403 393.524 81.0533 393.015 81.8077C392.327 82.8293 391.336 83.5943 390.19 83.9884C390.19 83.9884 384.214 88.5914 373.141 85.0413C373.141 85.0413 370.013 85.5074 369.51 85.1046L373.147 82.3658C373.147 82.3658 374.993 85.1909 377.696 85.5131C377.696 85.5131 373.152 82.5729 373.667 81.9343C373.773 81.8077 375.659 80.5764 375.659 80.5764C375.659 80.5764 378.893 85.4671 383.084 85.8296C383.084 85.8296 377.214 83.0735 376.37 80.0758L379.324 78.3957C379.324 78.3957 382.496 83.7352 387.258 84.3336C387.258 84.3336 381.215 81.238 379.984 78.0677L383.106 76.8134C383.106 76.8134 386.301 81.963 390.263 82.4348C390.263 82.4348 383.632 78.131 383.839 76.5775C383.839 76.5775 386.777 75.6051 387.678 75.7317C387.678 75.7317 390.05 79.3738 392.378 79.4371C392.378 79.4371 388.243 76.0769 388.517 75.559C388.517 75.559 392.663 75.3404 394.828 76.3703C394.828 76.3703 391.74 74.6039 388.511 74.8916C389.402 73.85 390.568 73.0981 391.868 72.7282C391.868 72.7282 389.586 71.7615 387.493 74.9549C387.493 74.9549 384.264 75.2598 383.867 75.6281C383.867 75.6281 385.495 72.1758 387.51 70.7086C387.51 70.7086 384.511 71.2494 383.033 75.933L379.861 77.1413C379.861 77.1413 381.786 72.4635 383.481 71.0193C383.481 71.0193 380.51 72.055 379.089 77.5096L376.174 79.1322C376.174 79.1322 377.533 74.9664 379.083 72.9411C379.083 72.9411 376.526 74.5176 375.357 79.627L373.533 80.9446C373.533 80.9446 374.579 77.9238 374.954 77.0838C375.329 76.2437 375.144 76.0711 375.144 76.0711C373.876 77.6133 373.051 79.4881 372.761 81.4855C372.761 81.4855 369.168 84.4487 368.973 84.2415Z" fill="#85CBFE"/>
</g>
<defs>
<clipPath id="clip0_263_2555">
<rect width="600" height="450" fill="white"/>
</clipPath>
</defs>
</svg>
