<svg xmlns="http://www.w3.org/2000/svg" xmlns:xlink="http://www.w3.org/1999/xlink" width="500" zoomAndPan="magnify" viewBox="0 0 375 374.999991" height="500" preserveAspectRatio="xMidYMid meet" version="1.0"><defs><clipPath id="5cf845524e"><path d="M 11.695312 11.695312 L 363.445312 11.695312 L 363.445312 363.445312 L 11.695312 363.445312 Z M 11.695312 11.695312 " clip-rule="nonzero"/></clipPath></defs><g clip-path="url(#5cf845524e)"><path fill="#0096ff" d="M 216.851562 186.460938 C 216.851562 200.507812 205.460938 211.886719 191.421875 211.886719 C 177.382812 211.886719 165.992188 200.5 165.992188 186.460938 C 165.992188 172.414062 177.382812 161.03125 191.421875 161.03125 C 205.460938 161.03125 216.851562 172.414062 216.851562 186.460938 Z M 349.636719 119.117188 C 340.78125 98.167969 328.097656 79.363281 311.945312 63.210938 C 295.800781 47.066406 276.984375 34.386719 256.042969 25.527344 C 239.570312 18.5625 222.332031 14.210938 204.59375 12.511719 C 198.972656 11.964844 193.296875 11.695312 187.574219 11.695312 C 183.957031 11.695312 180.351562 11.800781 176.769531 12.019531 C 156.84375 13.222656 137.492188 17.75 119.109375 25.519531 C 98.167969 34.378906 79.355469 47.0625 63.207031 63.207031 C 47.054688 79.355469 34.378906 98.167969 25.515625 119.109375 C 16.34375 140.804688 11.695312 163.839844 11.695312 187.582031 C 11.695312 211.320312 16.34375 234.359375 25.519531 256.050781 C 34.378906 276.992188 47.0625 295.800781 63.210938 311.953125 C 73.136719 321.878906 84.070312 330.492188 95.878906 337.714844 C 103.285156 342.246094 111.042969 346.234375 119.109375 349.644531 C 120.636719 350.292969 122.167969 350.910156 123.703125 351.507812 L 123.703125 253.371094 C 135.304688 264.644531 149.371094 272.484375 164.679688 276.410156 L 164.679688 247.214844 C 140.734375 237.984375 123.703125 214.738281 123.703125 187.589844 C 123.703125 156.054688 146.679688 129.78125 176.769531 124.625 C 180.28125 124.03125 183.894531 123.710938 187.574219 123.710938 C 193.46875 123.710938 199.179688 124.511719 204.59375 126.011719 C 231.582031 133.484375 251.449219 158.25 251.449219 187.582031 C 251.449219 212.351562 237.28125 233.863281 216.628906 244.460938 L 216.628906 274.605469 C 229.964844 270.167969 242.1875 262.652344 252.417969 252.421875 C 269.734375 235.105469 279.273438 212.074219 279.273438 187.582031 C 279.273438 163.09375 269.734375 140.058594 252.417969 122.742188 C 239.179688 109.503906 222.609375 100.820312 204.59375 97.457031 C 199.042969 96.417969 193.347656 95.886719 187.574219 95.886719 C 183.945312 95.886719 180.332031 96.097656 176.769531 96.519531 C 156.367188 98.898438 137.480469 108 122.734375 122.75 C 105.417969 140.066406 95.878906 163.101562 95.878906 187.589844 C 95.878906 188.171875 95.890625 188.757812 95.898438 189.347656 L 95.878906 189.347656 L 95.878906 303.851562 C 91.347656 300.265625 87.011719 296.414062 82.890625 292.285156 C 69.289062 278.683594 58.605469 262.84375 51.15625 245.214844 C 43.433594 226.972656 39.527344 207.582031 39.527344 187.589844 C 39.527344 167.601562 43.433594 148.207031 51.15625 129.957031 C 58.613281 112.328125 69.289062 96.496094 82.890625 82.890625 C 96.488281 69.289062 112.328125 58.613281 129.957031 51.15625 C 144.894531 44.84375 160.605469 41.074219 176.777344 39.917969 C 180.359375 39.660156 183.957031 39.527344 187.582031 39.527344 C 193.3125 39.527344 198.992188 39.84375 204.601562 40.484375 C 218.59375 42.078125 232.191406 45.644531 245.207031 51.148438 C 262.839844 58.605469 278.671875 69.285156 292.277344 82.882812 C 305.875 96.480469 316.554688 112.320312 324.011719 129.949219 C 331.730469 148.191406 335.640625 167.585938 335.640625 187.582031 C 335.640625 207.582031 331.730469 226.964844 324.011719 245.207031 C 316.554688 262.839844 305.875 278.671875 292.277344 292.277344 C 278.675781 305.882812 262.839844 316.5625 245.207031 324.011719 C 232.191406 329.519531 218.59375 333.089844 204.601562 334.679688 L 204.601562 218.238281 C 200.542969 219.929688 196.09375 220.859375 191.421875 220.859375 C 186.191406 220.859375 181.226562 219.6875 176.777344 217.582031 L 176.777344 363.144531 C 180.359375 363.359375 183.964844 363.472656 187.582031 363.472656 C 193.296875 363.472656 198.980469 363.195312 204.601562 362.660156 C 222.339844 360.96875 239.585938 356.613281 256.050781 349.644531 C 276.992188 340.789062 295.800781 328.105469 311.953125 311.953125 C 328.105469 295.808594 340.78125 277 349.644531 256.050781 C 358.824219 234.351562 363.472656 211.320312 363.472656 187.582031 C 363.464844 163.839844 358.816406 140.804688 349.636719 119.117188 Z M 349.636719 119.117188 " fill-opacity="1" fill-rule="nonzero"/></g></svg>