<svg width="250" height="250" viewBox="0 0 250 250" fill="none" xmlns="http://www.w3.org/2000/svg">
<path d="M215.365 93.25C214.043 88.9494 212.315 84.784 210.205 80.81C199.325 60.59 180.245 45.335 159.375 36.31C142.805 29.155 122.315 25.415 104.735 31.86C95.845 35.12 87.475 41.36 82.71 49.685C76.5 60.555 77.085 74 72.155 85.425C68.155 94.67 58.215 100.225 50.425 105.925C38.27 114.785 26.295 125.26 22.08 140.245C16.46 160.22 18.125 184 29.5 201.765C38 215.02 52.55 219 67.565 219.265C81.735 219.52 99.065 215.94 112.29 222.405C134.82 233.405 164.55 245.755 189.76 237.05C215.76 228.075 228.495 210.595 232.26 187.92C236.025 165.245 225.65 146.355 222.34 128.42C220.28 117.075 218.915 104.55 215.365 93.25Z" fill="#264740"/>
<path opacity="0.8" d="M215.365 93.25C214.043 88.9494 212.315 84.784 210.205 80.81C199.325 60.59 180.245 45.335 159.375 36.31C142.805 29.155 122.315 25.415 104.735 31.86C95.845 35.12 87.475 41.36 82.71 49.685C76.5 60.555 77.085 74 72.155 85.425C68.155 94.67 58.215 100.225 50.425 105.925C38.27 114.785 26.295 125.26 22.08 140.245C16.46 160.22 18.125 184 29.5 201.765C38 215.02 52.55 219 67.565 219.265C81.735 219.52 99.065 215.94 112.29 222.405C134.82 233.405 164.55 245.755 189.76 237.05C215.76 228.075 228.495 210.595 232.26 187.92C236.025 165.245 225.65 146.355 222.34 128.42C220.28 117.075 218.915 104.55 215.365 93.25Z" fill="white" fill-opacity="0.8"/>
<path d="M25.8052 161.33C25.6752 159.885 25.6452 158.555 25.6302 157.375C25.6302 156.705 25.6302 156.1 25.6302 155.535C26.1302 155.11 28.2152 153.385 28.7902 152.22C29.3652 151.055 29.7552 149.47 29.1452 148.25C29.0139 147.959 28.8231 147.699 28.5853 147.486C28.3474 147.273 28.0677 147.112 27.764 147.014C27.4603 146.915 27.1394 146.882 26.8219 146.915C26.5044 146.947 26.1973 147.046 25.9202 147.205C24.3052 148.205 24.1702 151.66 24.6052 153.325C24.6402 153.47 25.4852 155.65 25.5102 155.63L25.5452 155.605C25.5202 156.15 25.4952 156.735 25.4852 157.37C25.4852 158.55 25.4852 159.87 25.5752 161.34C25.5752 161.58 25.6102 161.84 25.6302 162.085C25.8102 162.355 25.9102 162.53 25.9102 162.53C25.8902 162.125 25.8402 161.715 25.8052 161.33Z" fill="#BABABA"/>
<path d="M20.6102 157.665C18.4402 158.02 18.1602 160.055 20.1852 161.355C21.9002 162.455 24.8302 162.53 25.6852 162.53C25.6852 162.38 25.6852 162.23 25.6502 162.085C24.8302 160.83 22.3902 157.37 20.6102 157.665Z" fill="#BABABA"/>
<path d="M63.7853 148.115C61.8703 148.055 59.8503 150.825 59.2853 152.435C59.2353 152.575 58.7453 154.845 58.7853 154.84H58.8253C58.5003 155.275 58.1603 155.745 57.8253 156.27C57.1653 157.24 56.4303 158.34 55.7153 159.59L55.4653 160.025C55.4303 160.375 55.4003 160.585 55.4003 160.585L55.2303 160.445C54.6264 161.518 54.0773 162.621 53.5853 163.75C52.8751 165.346 52.3095 167.003 51.8953 168.7C51.8953 168.7 51.8953 168.74 51.8953 168.76C51.8553 168.2 51.6853 166.635 51.6603 166.52C51.2853 164.84 49.5853 161.805 47.6603 161.6C47.3446 161.573 47.0268 161.614 46.7281 161.72C46.4295 161.826 46.1568 161.994 45.9283 162.214C45.6998 162.433 45.5207 162.699 45.4029 162.993C45.2852 163.288 45.2314 163.603 45.2453 163.92C45.2453 165.275 46.3553 166.55 47.3803 167.325C48.5403 168.205 51.5953 168.91 51.8353 168.965C51.4593 170.708 51.1987 172.473 51.0553 174.25C50.9653 175.285 50.9103 176.33 50.8653 177.385C50.8103 176.885 50.7653 176.465 50.7503 176.385C50.3753 174.71 48.6753 171.675 46.7503 171.47C46.4348 171.443 46.1172 171.484 45.8188 171.59C45.5204 171.696 45.248 171.864 45.0199 172.084C44.7917 172.304 44.6131 172.569 44.4959 172.864C44.3787 173.158 44.3257 173.474 44.3403 173.79C44.3403 175.145 45.4503 176.415 46.4753 177.195C47.5003 177.975 50.1103 178.64 50.8003 178.8C50.8003 179.205 50.7703 179.605 50.7603 180.01C50.7053 181.945 50.6553 183.875 50.5553 185.77C50.5203 186.435 50.4603 187.09 50.4003 187.745C50.3553 187.315 50.3153 186.955 50.3003 186.9C49.9303 185.225 48.2253 182.19 46.3003 181.985C45.9846 181.957 45.6667 181.998 45.3679 182.103C45.0691 182.209 44.7964 182.377 44.5681 182.597C44.3398 182.817 44.1611 183.083 44.0443 183.378C43.9274 183.672 43.8749 183.988 43.8903 184.305C43.8903 185.66 44.9953 186.93 46.0203 187.71C47.0453 188.49 49.4053 189.085 50.2203 189.285C50.1653 189.745 50.1103 190.205 50.0453 190.655C50.3353 190.74 50.6303 190.81 50.9353 190.87C51.0453 190 51.1303 189.115 51.2003 188.22C51.9103 188.42 54.4503 189.095 55.7003 188.91C56.9503 188.725 58.5103 188.14 59.1453 186.95C59.302 186.672 59.3992 186.365 59.4305 186.048C59.4619 185.731 59.4269 185.41 59.3276 185.107C59.2283 184.804 59.0671 184.526 58.854 184.288C58.641 184.051 58.3809 183.861 58.0903 183.73C56.3103 182.98 53.4203 184.825 52.3203 186.12C52.2553 186.2 51.5703 187.22 51.2053 187.785C51.2503 187.13 51.2953 186.48 51.3153 185.82C51.3803 183.905 51.3853 181.965 51.3953 180.035C51.3953 179.44 51.3953 178.85 51.3953 178.26C51.6503 178.335 54.6503 179.2 56.0703 178.99C57.3353 178.805 58.8803 178.22 59.5153 177.035C59.6726 176.757 59.7701 176.45 59.8016 176.132C59.833 175.814 59.7977 175.494 59.6979 175.19C59.5981 174.887 59.436 174.608 59.222 174.371C59.008 174.134 58.7469 173.945 58.4553 173.815C56.6803 173.065 53.7903 174.905 52.6903 176.2C52.6103 176.3 51.6303 177.765 51.4003 178.15C51.4003 176.85 51.4503 175.555 51.5303 174.28C51.6333 172.558 51.8471 170.844 52.1703 169.15C52.2903 169.185 55.4203 170.1 56.8703 169.89C58.1353 169.705 59.6853 169.115 60.3153 167.93C60.472 167.652 60.5691 167.345 60.6005 167.028C60.6319 166.711 60.5969 166.39 60.4976 166.087C60.3983 165.784 60.2371 165.506 60.024 165.268C59.811 165.031 59.5509 164.841 59.2603 164.71C57.4853 163.96 54.5903 165.805 53.4903 167.1C53.4053 167.2 52.3553 168.78 52.1803 169.1C52.1803 169 52.2103 168.895 52.2303 168.8C52.6035 167.115 53.1272 165.466 53.7953 163.875C54.1503 162.99 54.5403 162.17 54.9403 161.375C55.5053 161.605 58.1053 162.63 59.4403 162.585C60.7753 162.54 62.3253 162.13 63.0853 161.02C63.2725 160.762 63.4035 160.467 63.4699 160.156C63.5362 159.844 63.5364 159.521 63.4704 159.21C63.4044 158.898 63.2738 158.603 63.0869 158.345C62.9 158.086 62.661 157.87 62.3853 157.71C60.7003 156.77 57.6153 158.28 56.3853 159.445C56.3203 159.505 55.7103 160.23 55.2703 160.76C55.4553 160.405 55.6403 160.035 55.8253 159.7C56.5153 158.435 57.2253 157.32 57.8603 156.34C58.2253 155.785 58.5703 155.29 58.8953 154.84C59.5603 154.78 62.2553 154.495 63.3953 153.84C64.5353 153.185 65.7203 152.105 65.8953 150.765C65.943 150.451 65.9253 150.13 65.8433 149.823C65.7613 149.515 65.6167 149.228 65.4186 148.98C65.2205 148.731 64.9732 148.526 64.6922 148.377C64.4112 148.228 64.1024 148.139 63.7853 148.115Z" fill="#BABABA"/>
<path d="M37.5 189.395C37.63 189.65 37.755 189.895 37.88 190.165L38.735 189.885C38.41 189.24 38.075 188.595 37.735 187.96C38.43 187.735 40.9 186.9 41.84 186.045C42.78 185.19 43.735 183.84 43.605 182.495C43.5836 182.176 43.4964 181.865 43.3488 181.581C43.2013 181.298 42.9966 181.048 42.7476 180.847C42.4986 180.647 42.2108 180.5 41.9023 180.416C41.5938 180.332 41.2713 180.313 40.955 180.36C39.075 180.71 37.705 183.86 37.515 185.555C37.515 185.665 37.515 186.9 37.515 187.555C37.185 186.985 36.865 186.41 36.515 185.84C35.515 184.19 34.445 182.555 33.385 180.92L32.425 179.42C32.675 179.345 35.63 178.42 36.685 177.455C37.625 176.605 38.58 175.255 38.45 173.91C38.4294 173.591 38.3426 173.279 38.1953 172.995C38.048 172.711 37.8432 172.461 37.5941 172.26C37.345 172.06 37.0569 171.913 36.748 171.829C36.4392 171.746 36.1164 171.727 35.8 171.775C33.92 172.125 32.55 175.275 32.36 176.97C32.36 177.1 32.36 178.875 32.36 179.33C31.655 178.22 30.965 177.11 30.33 175.99C29.4655 174.482 28.6973 172.92 28.03 171.315C28.145 171.28 31.235 170.315 32.315 169.34C33.255 168.49 34.21 167.14 34.08 165.79C34.0587 165.471 33.9715 165.16 33.8239 164.877C33.6762 164.593 33.4714 164.344 33.2224 164.144C32.9733 163.943 32.6854 163.797 32.3769 163.714C32.0684 163.631 31.746 163.612 31.43 163.66C29.55 164.01 28.18 167.16 27.99 168.855C27.99 168.99 27.99 170.9 27.99 171.25C27.955 171.155 27.905 171.06 27.87 170.97C27.2487 169.348 26.7702 167.675 26.44 165.97C26.245 165.03 26.115 164.12 26.005 163.23C26.6 163.115 29.31 162.54 30.385 161.77C31.46 161 32.51 159.77 32.53 158.44C32.5434 158.12 32.4904 157.801 32.3743 157.503C32.2583 157.205 32.0817 156.934 31.8557 156.708C31.6297 156.481 31.3593 156.304 31.0614 156.188C30.7635 156.071 30.4447 156.017 30.125 156.03C28.215 156.17 26.505 159.145 26.125 160.81C26.125 160.9 25.995 161.845 25.925 162.535H25.68C25.775 163.645 25.91 164.815 26.13 166.035C26.4217 167.775 26.8685 169.485 27.465 171.145C27.4703 171.165 27.4787 171.183 27.49 171.2C27.145 170.75 26.145 169.525 26.06 169.44C24.825 168.235 21.75 166.615 20.06 167.495C19.7837 167.651 19.5436 167.864 19.3554 168.12C19.1673 168.375 19.0353 168.668 18.9683 168.978C18.9012 169.289 18.9006 169.609 18.9664 169.92C19.0321 170.231 19.1629 170.524 19.35 170.78C20.11 171.915 21.715 172.385 22.99 172.47C24.43 172.575 27.34 171.47 27.57 171.395C28.2173 173.072 28.9757 174.704 29.84 176.28C30.34 177.205 30.865 178.12 31.41 179.03C31.1 178.65 30.82 178.31 30.775 178.27C29.545 177.06 26.465 175.44 24.775 176.32C24.498 176.476 24.2572 176.689 24.0685 176.945C23.8798 177.201 23.7476 177.495 23.6805 177.805C23.6134 178.116 23.613 178.438 23.6793 178.749C23.7456 179.06 23.877 179.353 24.065 179.61C24.82 180.745 26.43 181.21 27.705 181.3C28.98 181.39 31.5 180.5 32.165 180.25C32.38 180.595 32.585 180.945 32.8 181.29C33.8 182.95 34.85 184.605 35.8 186.255C36.135 186.84 36.45 187.425 36.76 188.01C36.485 187.67 36.26 187.39 36.215 187.35C34.98 186.145 31.9 184.525 30.215 185.405C29.9383 185.561 29.6977 185.773 29.5091 186.029C29.3204 186.284 29.1879 186.577 29.1204 186.887C29.0529 187.197 29.0518 187.518 29.1172 187.829C29.1826 188.14 29.3131 188.433 29.5 188.69C30.255 189.825 31.865 190.295 33.14 190.385C34.415 190.475 36.705 189.675 37.5 189.395Z" fill="#BABABA"/>
<path d="M54.3303 153.445C52.4253 152.35 50.9203 153.755 51.6703 156.04C52.3103 157.995 54.5753 159.93 55.2153 160.44L55.4503 160.02C55.6103 158.5 55.8853 154.335 54.3303 153.445Z" fill="#BABABA"/>
<path d="M169.655 232.78C167.545 232.835 165.5 236.03 164.995 237.85C164.97 237.945 164.805 238.94 164.695 239.695C165.695 239.785 166.695 239.855 167.695 239.905C168.378 239.741 169.035 239.482 169.645 239.135C170.82 238.37 172.095 237.065 172.185 235.57C172.219 235.217 172.179 234.861 172.068 234.524C171.956 234.188 171.776 233.878 171.537 233.615C171.299 233.353 171.009 233.143 170.685 232.999C170.361 232.855 170.01 232.78 169.655 232.78Z" fill="#BABABA"/>
<path d="M151.445 204.5C149.015 204.5 148.355 206.68 150.34 208.45C152.015 209.95 155.2 210.545 156.13 210.695L156.175 210.195C155.5 208.67 153.44 204.47 151.445 204.5Z" fill="#BABABA"/>
<path d="M190.575 232.42C190.795 232.144 190.955 231.826 191.045 231.485C191.135 231.144 191.153 230.788 191.097 230.44C191.041 230.092 190.914 229.759 190.722 229.463C190.531 229.167 190.28 228.914 189.985 228.72C188.18 227.595 184.7 229.1 183.28 230.32C183.17 230.41 181.85 231.845 181.53 232.225C181.775 230.805 182.03 229.4 182.35 228.02C182.759 226.154 183.29 224.317 183.94 222.52C184.065 222.58 187.315 224.125 188.94 224.15C190.35 224.15 192.14 223.795 193.035 222.615C193.255 222.339 193.415 222.021 193.505 221.68C193.595 221.339 193.613 220.983 193.557 220.635C193.501 220.287 193.374 219.954 193.182 219.658C192.991 219.362 192.74 219.109 192.445 218.915C190.64 217.79 187.16 219.295 185.74 220.515C185.625 220.61 184.205 222.15 183.965 222.45C184.005 222.345 184.03 222.235 184.07 222.13C184.772 220.357 185.63 218.65 186.635 217.03C187.175 216.13 187.745 215.3 188.32 214.53C188.895 214.88 191.555 216.45 193.015 216.63C194.475 216.81 196.24 216.63 197.26 215.56C197.509 215.311 197.703 215.012 197.829 214.683C197.956 214.355 198.012 214.003 197.995 213.652C197.977 213.3 197.886 212.956 197.728 212.641C197.57 212.326 197.347 212.049 197.075 211.825C195.4 210.505 191.775 211.62 190.225 212.67C190.14 212.73 189.35 213.41 188.78 213.91C189.04 213.555 189.31 213.185 189.565 212.85C190.54 211.59 191.505 210.5 192.37 209.54C192.87 209 193.325 208.54 193.76 208.075C194.5 208.125 197.49 208.285 198.835 207.78C200.18 207.275 201.675 206.28 202.08 204.855C202.186 204.518 202.221 204.163 202.183 203.812C202.145 203.461 202.034 203.122 201.858 202.816C201.681 202.51 201.444 202.244 201.159 202.034C200.875 201.825 200.55 201.677 200.205 201.6C198.13 201.195 195.445 203.87 194.56 205.53C194.485 205.675 193.56 208.06 193.59 208.065H193.635C193.21 208.48 192.755 208.935 192.27 209.44C191.385 210.385 190.39 211.44 189.385 212.7L189.04 213.13C188.94 213.505 188.875 213.725 188.875 213.725C188.875 213.725 188.81 213.66 188.71 213.545C187.915 214.545 187.105 215.655 186.34 216.86C185.287 218.479 184.382 220.189 183.635 221.97C183.635 221.97 183.635 222.015 183.635 222.035C183.69 221.415 183.78 219.68 183.77 219.535C183.66 217.64 182.33 214.035 180.27 213.475C179.93 213.392 179.577 213.382 179.232 213.446C178.888 213.51 178.562 213.647 178.275 213.847C177.988 214.047 177.747 214.306 177.567 214.607C177.388 214.907 177.275 215.242 177.235 215.59C177.015 217.09 177.985 218.645 178.97 219.675C180.08 220.835 183.29 222.135 183.545 222.24C182.827 224.075 182.234 225.956 181.77 227.87C181.495 228.98 181.27 230.115 181.015 231.25C181.045 230.715 181.065 230.25 181.06 230.17C180.945 228.275 179.62 224.67 177.56 224.11C177.221 224.025 176.867 224.014 176.522 224.077C176.178 224.14 175.851 224.276 175.564 224.476C175.276 224.676 175.035 224.935 174.856 225.236C174.677 225.536 174.564 225.872 174.525 226.22C174.305 227.72 175.275 229.28 176.26 230.31C177.245 231.34 179.975 232.515 180.695 232.81L180.44 234.12C180.1 235.915 179.765 237.705 179.395 239.47L180.295 239.345C180.605 237.66 180.89 235.96 181.17 234.26C181.275 233.615 181.39 232.975 181.505 232.33C181.765 232.455 184.89 233.92 186.475 233.945C187.89 233.97 189.68 233.6 190.575 232.42Z" fill="#BABABA"/>
<path d="M188.965 205.755C187.075 204.23 185.195 205.5 185.61 208.12C185.97 210.37 188.11 212.87 188.71 213.54L189.04 213.125C189.5 211.5 190.5 207 188.965 205.755Z" fill="#BABABA"/>
<path d="M156.5 209.38C156.61 207.785 156.81 206.325 157 205.04C157.11 204.31 157.225 203.65 157.34 203.04C157.98 202.67 160.535 201.145 161.365 199.975C162.195 198.805 162.895 197.145 162.445 195.71C162.352 195.37 162.189 195.053 161.967 194.78C161.745 194.506 161.468 194.282 161.154 194.122C160.84 193.961 160.496 193.868 160.144 193.848C159.792 193.828 159.44 193.881 159.11 194.005C157.17 194.82 156.425 198.56 156.61 200.45C156.61 200.615 157.165 203.14 157.2 203.125L157.24 203.1C157.115 203.69 156.99 204.325 156.87 205.02C156.65 206.305 156.42 207.76 156.275 209.365C156.25 209.63 156.225 209.91 156.205 210.185C156.35 210.515 156.435 210.72 156.435 210.72C156.425 210.27 156.445 209.81 156.5 209.38Z" fill="#BABABA"/>
<path d="M157.1 236.415C156.68 236.556 156.309 236.814 156.03 237.159C155.751 237.503 155.576 237.92 155.525 238.36C158.11 238.86 160.695 239.275 163.275 239.55C162.125 238 159.08 235.755 157.1 236.415Z" fill="#BABABA"/>
<path d="M175.26 235.5C174.92 235.415 174.567 235.404 174.222 235.467C173.878 235.53 173.551 235.666 173.264 235.866C172.976 236.066 172.735 236.325 172.556 236.626C172.377 236.926 172.264 237.262 172.225 237.61C172.141 238.431 172.316 239.258 172.725 239.975C174.615 239.935 176.492 239.81 178.355 239.6C177.8 237.84 176.715 235.905 175.26 235.5Z" fill="#BABABA"/>
<path d="M163.855 238C163.05 236.03 162.17 234.055 161.305 232.085C161.04 231.485 160.78 230.88 160.52 230.275C160.805 230.235 164.19 229.74 165.52 228.875C166.695 228.11 167.97 226.805 168.06 225.31C168.093 224.96 168.054 224.607 167.944 224.273C167.834 223.939 167.655 223.631 167.421 223.37C167.186 223.108 166.899 222.898 166.579 222.753C166.259 222.607 165.912 222.53 165.56 222.525C163.45 222.575 161.405 225.775 160.9 227.59C160.86 227.73 160.55 229.67 160.5 230.165C159.925 228.835 159.365 227.505 158.87 226.165C158.187 224.37 157.621 222.533 157.175 220.665C157.305 220.665 160.84 220.165 162.175 219.265C163.345 218.5 164.625 217.19 164.715 215.7C164.748 215.35 164.709 214.996 164.599 214.662C164.489 214.328 164.311 214.02 164.076 213.758C163.841 213.496 163.554 213.285 163.234 213.139C162.914 212.994 162.567 212.915 162.215 212.91C160.105 212.965 158.06 216.16 157.555 217.98C157.515 218.12 157.185 220.21 157.155 220.59C157.13 220.485 157.09 220.375 157.065 220.265C156.672 218.382 156.444 216.468 156.385 214.545C156.335 213.485 156.35 212.47 156.385 211.485C157.05 211.46 160.105 211.305 161.415 210.65C162.725 209.995 164.08 208.865 164.33 207.395C164.401 207.049 164.4 206.692 164.325 206.347C164.251 206.002 164.106 205.676 163.899 205.389C163.692 205.103 163.428 204.863 163.124 204.684C162.819 204.505 162.481 204.391 162.13 204.35C160.025 204.165 157.63 207.115 156.935 208.85C156.9 208.945 156.62 209.96 156.435 210.7L156.16 210.66C156.07 211.885 156.015 213.16 156.045 214.54C156.062 216.488 156.251 218.431 156.61 220.345V220.41C156.315 219.86 155.435 218.35 155.355 218.24C154.22 216.71 151.145 214.405 149.15 215.07C148.823 215.194 148.525 215.386 148.276 215.633C148.027 215.88 147.833 216.176 147.706 216.503C147.579 216.83 147.523 217.18 147.54 217.53C147.557 217.88 147.647 218.222 147.805 218.535C148.43 219.9 150.105 220.695 151.48 221.035C153.03 221.395 156.395 220.71 156.665 220.655C157.079 222.597 157.62 224.509 158.285 226.38C158.67 227.475 159.09 228.565 159.52 229.65C159.25 229.185 159.02 228.765 158.965 228.715C157.83 227.18 154.755 224.88 152.76 225.545C152.433 225.669 152.136 225.861 151.888 226.108C151.639 226.354 151.445 226.65 151.319 226.976C151.192 227.302 151.135 227.651 151.152 228.001C151.168 228.35 151.258 228.692 151.415 229.005C152.04 230.375 153.71 231.165 155.09 231.505C156.47 231.845 159.365 231.305 160.125 231.155C160.295 231.57 160.46 231.985 160.625 232.4C161.45 234.4 162.285 236.375 163.04 238.345C163.2 238.765 163.35 239.185 163.5 239.6L164.5 239.7C164.295 239.12 164.085 238.56 163.855 238Z" fill="#BABABA"/>
<path d="M162.57 80.81L162.9 82.785L165.1 82.98L165.76 81.11C166.481 81.0452 167.192 80.8907 167.875 80.65L169.265 82.06L171.175 80.955L170.65 79.055C171.203 78.5846 171.695 78.0471 172.115 77.455L174.055 77.815L174.99 75.815L173.465 74.56C173.646 73.8576 173.738 73.1353 173.74 72.41L175.55 71.59L175.165 69.415L173.165 69.26C172.911 68.591 172.575 67.9562 172.165 67.37L173.195 65.63L171.635 64.07L169.885 65.11C168.876 64.4289 167.737 63.9642 166.54 63.745L166.04 61.745H163.83L163.33 63.745C162.64 63.8725 161.968 64.0841 161.33 64.375L159.755 63.01L157.945 64.275L158.69 66.225C158.203 66.7204 157.779 67.2728 157.425 67.87L155.345 67.655L154.59 69.73L156.31 70.895C156.229 71.3791 156.189 71.8692 156.19 72.36C156.19 72.57 156.19 72.775 156.19 72.98L154.385 73.98L154.955 76.11L157 76.085C157.304 76.7219 157.681 77.321 158.125 77.87L157.24 79.71L158.93 81.125L160.6 80M169.77 69.69C170.362 70.7429 170.59 71.9613 170.421 73.1571C170.251 74.3529 169.693 75.4597 168.832 76.3065C167.97 77.1534 166.855 77.6932 165.656 77.8427C164.457 77.9922 163.243 77.743 162.2 77.1336C161.158 76.5242 160.344 75.5885 159.886 74.471C159.428 73.3534 159.351 72.1162 159.666 70.9502C159.981 69.7842 160.671 68.7544 161.63 68.0197C162.588 67.285 163.762 66.8862 164.97 66.885C165.234 66.8845 165.498 66.9046 165.76 66.945M167.625 67.565C168.048 67.799 168.438 68.0882 168.785 68.425" stroke="black" stroke-miterlimit="10"/>
<path d="M167.78 193.43L168.11 195.405L170.31 195.6L170.97 193.73C171.691 193.665 172.402 193.511 173.085 193.27L174.475 194.68L176.385 193.575L175.885 191.675C176.438 191.205 176.93 190.667 177.35 190.075L179.29 190.435L180.225 188.435L178.725 187.18C178.906 186.478 178.998 185.755 179 185.03L180.81 184.21L180.425 182.035L178.425 181.88C178.173 181.21 177.837 180.575 177.425 179.99L178.455 178.25L176.895 176.69L175.145 177.73C174.136 177.049 172.997 176.584 171.8 176.365L171.3 174.365H169.09L168.59 176.365C167.9 176.493 167.228 176.704 166.59 176.995L165 175.645L163.19 176.91L163.935 178.86C163.449 179.355 163.024 179.908 162.67 180.505L160.59 180.29L159.835 182.365L161.555 183.53C161.474 184.014 161.434 184.504 161.435 184.995C161.435 185.205 161.435 185.41 161.435 185.615L159.63 186.615L160.2 188.745L162.245 188.72C162.549 189.357 162.926 189.956 163.37 190.505L162.5 192.355L164.19 193.77L165.83 192.6M175 182.29C175.592 183.343 175.82 184.561 175.651 185.757C175.481 186.953 174.923 188.06 174.062 188.907C173.201 189.753 172.085 190.293 170.886 190.443C169.688 190.592 168.473 190.343 167.43 189.734C166.388 189.124 165.574 188.189 165.116 187.071C164.658 185.953 164.581 184.716 164.896 183.55C165.211 182.384 165.901 181.354 166.86 180.62C167.818 179.885 168.992 179.486 170.2 179.485C170.464 179.485 170.728 179.505 170.99 179.545M172.855 180.165C173.278 180.399 173.668 180.688 174.015 181.025" stroke="black" stroke-miterlimit="10"/>
<path d="M178.5 57.12L178.79 57.88C178.645 58.025 178.505 58.18 178.37 58.335M177.635 59.335C177.595 59.395 177.56 59.455 177.525 59.515L175.445 59.305L174.69 61.375L176.41 62.54C176.328 63.024 176.286 63.5141 176.285 64.005C176.285 64.215 176.285 64.42 176.285 64.625L174.475 65.625L175.05 67.755H177.095C177.396 68.3952 177.774 68.9963 178.22 69.545L177.335 71.38L179.025 72.8L180.665 71.625C181.285 71.9824 181.947 72.2628 182.635 72.46L182.965 74.435L185.16 74.625L185.825 72.755C186.546 72.6919 187.257 72.539 187.94 72.3L189.325 73.705L191.235 72.605L190.735 70.705C191.287 70.2334 191.779 69.6961 192.2 69.105L194.14 69.46L195.075 67.46L193.55 66.2C193.729 65.4988 193.821 64.7785 193.825 64.055L195.635 63.23L195.25 61.06L193.25 60.905C192.995 60.235 192.659 59.5986 192.25 59.01L193.28 57.275L191.72 55.715L189.97 56.755C188.964 56.0698 187.824 55.6046 186.625 55.39L186.125 53.39H183.92L183.42 55.39C182.731 55.5199 182.059 55.7314 181.42 56.02L179.84 54.655L178.035 55.92L178.265 56.52M190.44 65.14C190.366 65.5024 190.253 65.856 190.105 66.195M189.69 66.97C188.98 68.0865 187.89 68.9093 186.622 69.2875C185.354 69.6658 183.992 69.574 182.786 69.0292C181.58 68.4844 180.611 67.5229 180.056 66.3213C179.502 65.1196 179.399 63.7584 179.767 62.4872C180.135 61.216 180.949 60.1202 182.06 59.4007C183.171 58.6813 184.504 58.3864 185.814 58.5703C187.125 58.7542 188.325 59.4044 189.195 60.4017C190.065 61.3991 190.546 62.6766 190.55 64C190.55 64.1333 190.55 64.2683 190.55 64.405" stroke="black" stroke-miterlimit="10"/>
<path d="M46.615 125.145L44.96 128.58L48.12 131.23L51.18 129.035C52.3405 129.706 53.5801 130.23 54.87 130.595L55.48 134.285L59.59 134.645L60.825 131.145C62.174 131.025 63.5027 130.736 64.78 130.285L67.37 132.92L70.94 130.86L69.94 127.31C70.9747 126.427 71.8966 125.419 72.685 124.31L76.31 124.975L78.055 121.24L75.21 118.89C75.5416 117.583 75.7095 116.239 75.71 114.89L79.09 113.35L78.375 109.29L74.645 109C74.1682 107.751 73.542 106.564 72.78 105.465L74.7 102.215L71.785 99.3001L68.51 101.245C66.6289 99.9654 64.4993 99.0965 62.26 98.6951L61.315 94.9551H57.19L56.24 98.7151C54.9624 98.9595 53.7186 99.3557 52.535 99.8951L49.585 97.3451L46.21 99.7101L47.6 103.355C46.6932 104.281 45.8993 105.312 45.235 106.425L41.35 106.025L39.94 109.9L43.155 112.08C43.0022 112.985 42.9253 113.902 42.925 114.82C42.925 115.21 42.94 115.595 42.97 115.975L39.585 117.865L40.655 121.865L44.48 121.82C44.9028 122.721 45.4048 123.583 45.98 124.395M55.85 105.135C56.2992 104.977 56.7586 104.851 57.225 104.755M59.765 104.555C62.2838 104.671 64.6722 105.709 66.4763 107.47C68.2804 109.232 69.3746 111.595 69.5508 114.11C69.727 116.626 68.9731 119.118 67.4322 121.114C65.8913 123.11 63.6709 124.47 61.1929 124.937C58.7149 125.403 56.1519 124.943 53.9909 123.643C51.83 122.344 50.2216 120.296 49.4715 117.889C48.7214 115.481 48.8818 112.882 49.9223 110.585C50.9627 108.289 52.8106 106.454 55.115 105.43" stroke="black" stroke-miterlimit="10"/>
<path d="M99.4401 114.045L95.3501 111.405" stroke="#263238" stroke-width="3" stroke-linecap="round" stroke-linejoin="round"/>
<path d="M106.545 106.105L105.485 105.22" stroke="#263238" stroke-width="3" stroke-linecap="round" stroke-linejoin="round"/>
<path d="M94.6051 129.385L86.1401 127.265" stroke="#263238" stroke-width="3" stroke-linecap="round" stroke-linejoin="round"/>
<path d="M140.355 181.415C140.293 181.414 140.231 181.406 140.17 181.39C139.975 181.339 139.808 181.213 139.705 181.04C139.445 180.585 139.305 180.34 141.415 177.92C136.865 180.705 136.38 180.59 136.115 180.525C135.908 180.464 135.73 180.329 135.615 180.145C135.195 179.42 135.115 179.275 143.535 172.385C142.185 173.26 140.78 174.2 139.535 175.03C132.125 179.975 129.82 181.38 128.8 181.145C128.677 181.117 128.56 181.064 128.458 180.989C128.355 180.914 128.27 180.819 128.205 180.71C127.755 179.93 127.755 179.93 137.705 172.74L139.675 171.32C138.525 172.085 137.38 172.865 136.33 173.58C128.5 178.905 124.935 181.205 123.6 180.905C123.461 180.874 123.33 180.813 123.216 180.727C123.102 180.64 123.008 180.531 122.94 180.405C122.44 179.56 122.34 179.37 136.81 169.54L117.78 180.54C117.611 180.634 117.411 180.658 117.224 180.607C117.037 180.556 116.878 180.433 116.78 180.265C116.445 179.685 116.705 178.975 118.08 177.765C115.89 179.025 114.62 179.53 113.995 179.385C113.865 179.355 113.742 179.299 113.634 179.221C113.526 179.143 113.435 179.044 113.365 178.93C112.95 178.21 113.11 177.545 118.405 173.985C112.945 177.4 110.93 178.405 110.145 178.22C110.029 178.193 109.919 178.142 109.822 178.07C109.726 177.999 109.645 177.909 109.585 177.805C109.22 177.18 109.56 176.955 110.815 176.125L113.58 174.32L117.81 171.585C113.15 174.005 112.45 173.84 112.06 173.745C111.929 173.715 111.805 173.659 111.696 173.58C111.587 173.501 111.495 173.401 111.425 173.285C111.333 173.116 111.31 172.917 111.36 172.731C111.41 172.545 111.53 172.385 111.695 172.285C126.37 163.585 149.025 149.63 154.485 145.015C149.04 147.49 132.76 157.6 123.485 163.375C111.54 170.8 111.485 170.785 110.985 170.655C110.882 170.632 110.784 170.588 110.698 170.526C110.612 170.464 110.54 170.386 110.485 170.295C110.08 169.595 110.1 169.145 114.88 166.185C112.68 167.22 111.23 167.685 110.59 167.535C110.45 167.502 110.318 167.441 110.203 167.355C110.088 167.269 109.991 167.16 109.92 167.035C109.824 166.869 109.797 166.672 109.842 166.486C109.888 166.3 110.004 166.138 110.165 166.035C124.975 156.6 145.81 143.24 154.31 137.595C151.945 138.8 148.77 140.595 145.24 142.71C142.385 144.545 139 146.68 134.995 149.17C129.705 152.465 124.355 155.73 119.9 158.43C109.14 165.22 109.01 165.19 108.485 165.06C108.382 165.035 108.285 164.99 108.199 164.928C108.113 164.865 108.04 164.786 107.985 164.695C107.893 164.526 107.87 164.327 107.92 164.141C107.97 163.955 108.09 163.795 108.255 163.695C111.495 161.77 115.07 159.625 118.78 157.375L120.73 156.145C112.96 160.59 108.665 162.535 107.4 162.225C107.254 162.196 107.115 162.137 106.994 162.051C106.872 161.965 106.771 161.854 106.695 161.725C106.23 160.925 106.89 159.905 112.37 156.325C108.835 158.48 107.435 159.12 106.84 158.975C106.727 158.949 106.62 158.901 106.526 158.832C106.432 158.763 106.354 158.676 106.295 158.575C105.98 158.03 105.725 157.575 109.385 154.92C107.415 155.92 106.17 156.325 105.575 156.18C105.44 156.151 105.313 156.094 105.201 156.013C105.089 155.932 104.995 155.829 104.925 155.71C104.875 155.624 104.842 155.529 104.829 155.43C104.817 155.331 104.824 155.231 104.85 155.135C104.903 154.943 105.029 154.78 105.2 154.68C121.425 145.455 145.995 130.845 153.475 124.95C145.27 129.48 122.65 142.76 106.865 152.12C106.78 152.17 106.686 152.203 106.588 152.217C106.49 152.231 106.39 152.225 106.294 152.2C106.198 152.174 106.108 152.131 106.03 152.071C105.951 152.011 105.885 151.936 105.835 151.85C105.759 151.713 105.711 151.561 105.694 151.405C105.678 151.248 105.694 151.09 105.74 150.94C106.019 150.306 106.439 149.745 106.97 149.3C105.805 149.775 105.025 149.95 104.58 149.84C104.442 149.806 104.312 149.745 104.198 149.659C104.085 149.573 103.99 149.464 103.92 149.34C103.47 148.565 104.33 147.965 105.63 147.06C106.63 146.385 108.045 145.45 110.025 144.21C113.72 141.9 118.79 138.84 124.16 135.605C130.195 131.965 137.365 127.64 143.06 124.06C130.875 131.06 111.685 142.27 102.47 147.66C102.296 147.759 102.089 147.786 101.895 147.735C101.8 147.71 101.711 147.666 101.632 147.606C101.554 147.546 101.489 147.471 101.44 147.385C101.055 146.715 100.94 146.52 107.565 142.35C104.97 143.775 103.33 144.39 102.495 144.195C102.338 144.162 102.188 144.097 102.058 144.003C101.927 143.909 101.817 143.789 101.735 143.65C101.235 142.79 101.235 142.79 113.265 135.805C118.83 132.575 125.47 128.715 131.58 125.005C136.71 121.595 140.725 119.005 143.77 117.205C145.367 116.143 146.883 114.963 148.305 113.675C142.06 116.48 117.4 131.39 101.805 141.09C101.637 141.196 101.433 141.231 101.239 141.187C101.045 141.143 100.876 141.023 100.77 140.855C100.664 140.687 100.629 140.483 100.673 140.289C100.717 140.095 100.837 139.926 101.005 139.82L105.845 136.74C101.845 138.795 100.345 139.14 99.7302 138.985C99.5907 138.953 99.4595 138.891 99.345 138.805C99.2305 138.719 99.1352 138.61 99.0652 138.485C98.9682 138.319 98.9396 138.122 98.9853 137.935C99.031 137.749 99.1475 137.587 99.3102 137.485L109.965 130.655C101.255 135.575 100.55 135.4 100.12 135.29C100.006 135.263 99.8981 135.214 99.8035 135.144C99.709 135.074 99.6296 134.986 99.5702 134.885C99.4766 134.717 99.4509 134.52 99.4984 134.334C99.5458 134.148 99.6628 133.987 99.8252 133.885C111.055 126.94 127.01 116.885 136.325 110.58C128.8 114.915 117.825 121.355 110.105 125.895L101.5 130.895C99.5902 132.01 98.6652 132.555 98.1702 132.805L98.0402 132.885C97.6952 133.05 97.6102 133.025 97.4652 132.985C97.3241 132.947 97.1971 132.869 97.0997 132.76C97.0023 132.652 96.9388 132.517 96.9171 132.372C96.8953 132.228 96.9162 132.08 96.9771 131.947C97.0381 131.815 97.1365 131.703 97.2602 131.625C109.17 124.26 126.76 113.16 134.64 107.7C130.445 110.13 124.18 114.125 119.14 117.35C105.01 126.35 100.715 128.94 99.4702 128.63C99.3519 128.602 99.2404 128.55 99.1424 128.478C99.0445 128.406 98.9621 128.315 98.9002 128.21C98.5902 127.665 98.3652 127.28 103.06 123.895C101.78 124.46 100.915 124.675 100.41 124.555C100.267 124.523 100.133 124.462 100.014 124.376C99.8955 124.29 99.7955 124.181 99.7202 124.055C99.6274 123.888 99.6016 123.691 99.648 123.506C99.6944 123.32 99.8096 123.159 99.9702 123.055C109.195 117.25 123.215 108.15 128.035 104.385C123.815 106.45 114.605 112.385 109.185 115.855C100.33 121.5 100 121.64 99.4352 121.5C99.3316 121.476 99.2339 121.431 99.148 121.369C99.0621 121.306 98.9897 121.226 98.9352 121.135C98.5352 120.45 98.1852 119.84 106.855 113.88C105.785 114.56 104.69 115.265 103.57 115.985C103.478 116.06 103.369 116.113 103.253 116.14C103.137 116.167 103.016 116.167 102.9 116.14C102.802 116.116 102.709 116.073 102.628 116.012C102.547 115.951 102.48 115.873 102.43 115.785C101.895 114.86 102.665 114.065 108.75 109.4C108.639 109.376 108.533 109.329 108.441 109.262C108.349 109.195 108.272 109.109 108.215 109.01C108.122 108.838 108.1 108.636 108.154 108.447C108.207 108.259 108.331 108.099 108.5 108C108.641 107.923 108.801 107.89 108.96 107.905C109.751 107.446 110.517 106.945 111.255 106.405C113.695 104.69 114.385 104.28 114.98 104.405C115.096 104.43 115.206 104.479 115.302 104.549C115.399 104.619 115.48 104.708 115.54 104.81C115.97 105.56 115.635 106.01 111.54 109.18C112.68 108.475 113.855 107.745 115.04 107.025C126.6 99.955 127.495 100.165 128.04 100.295C128.16 100.321 128.273 100.372 128.372 100.444C128.471 100.516 128.554 100.609 128.615 100.715C128.709 100.882 128.736 101.079 128.689 101.265C128.643 101.451 128.527 101.612 128.365 101.715C122.725 105.215 116.865 109.005 111.95 112.28C123.36 104.995 128.845 101.78 130.39 102.17C130.524 102.2 130.651 102.257 130.762 102.338C130.873 102.419 130.966 102.522 131.035 102.64C131.51 103.465 131.855 104.065 116.07 114.455L113.8 115.955C116.98 113.955 120.2 111.855 122.8 110.155C132.925 103.585 134.565 102.62 135.33 102.8C135.435 102.827 135.533 102.876 135.619 102.942C135.705 103.008 135.777 103.091 135.83 103.185C135.926 103.351 135.954 103.548 135.908 103.734C135.863 103.92 135.747 104.082 135.585 104.185C125.795 110.425 111.495 119.74 104.425 124.745C108.225 122.505 113.61 119.07 118.3 116.08C133.165 106.58 138.015 103.705 139.385 104.035C139.508 104.064 139.623 104.118 139.724 104.193C139.826 104.267 139.911 104.362 139.975 104.47C140.34 105.105 140.605 105.555 131.91 111.36C144.095 104.29 144.33 104.36 144.715 104.45C144.813 104.475 144.905 104.52 144.986 104.58C145.066 104.641 145.134 104.718 145.185 104.805C145.685 105.67 146.04 106.305 123.05 120.995C121.38 122.065 119.705 123.13 118.05 124.17C127.15 118.79 137.995 112.17 146.21 107.04C146.296 106.988 146.392 106.953 146.491 106.937C146.591 106.922 146.692 106.926 146.79 106.95C146.987 107 147.156 107.126 147.26 107.3C147.615 107.92 147.09 108.3 146.535 108.68C146.195 108.915 145.695 109.255 145.035 109.68C143.825 110.485 142.035 111.68 139.725 113.18C135.835 115.715 130.4 119.23 123.57 123.63C116.99 127.865 110.36 132.13 105.815 135.035C111.82 131.86 123.5 125 146 110.625C149.24 108.56 149.24 108.56 149.57 108.625C149.669 108.649 149.762 108.693 149.844 108.754C149.925 108.815 149.994 108.892 150.045 108.98C150.23 109.3 150.335 109.48 149.735 110.015C148.935 110.715 146.945 112.015 142.405 114.965C148.835 111.44 149.435 111.585 149.825 111.685C149.939 111.711 150.046 111.759 150.139 111.828C150.233 111.897 150.312 111.984 150.37 112.085C150.64 112.555 150.705 113.12 149.705 114.24C150.1 114.117 150.517 114.086 150.925 114.15C151.088 114.184 151.242 114.252 151.378 114.349C151.513 114.447 151.626 114.571 151.71 114.715C152.21 115.575 152.46 116.015 137.605 125.385C153.335 116.275 153.49 116.315 153.865 116.415C153.961 116.44 154.052 116.483 154.131 116.543C154.21 116.603 154.276 116.679 154.325 116.765C154.825 117.595 153.925 118.43 151.775 120C150.39 121 148.435 122.32 145.815 124C154.55 118.545 156.74 117.415 157.52 117.605C157.631 117.632 157.734 117.681 157.825 117.749C157.917 117.816 157.993 117.902 158.05 118C158.1 118.085 158.133 118.179 158.146 118.277C158.159 118.375 158.152 118.475 158.125 118.57C158.1 118.667 158.055 118.757 157.994 118.836C157.933 118.915 157.857 118.981 157.77 119.03C152.67 121.92 147.485 124.91 142.475 127.86L137.285 131.14C127.08 137.6 119.635 142.245 114.41 145.285C112.755 146.42 111.34 147.43 110.205 148.285C114.855 145.535 122.775 140.86 130.705 136.235C155.705 121.605 156.085 121.71 156.56 121.835C156.658 121.86 156.75 121.905 156.831 121.965C156.911 122.026 156.979 122.103 157.03 122.19C157.103 122.318 157.148 122.459 157.165 122.605C157.181 122.751 157.168 122.899 157.125 123.04C156.978 123.524 156.695 123.956 156.31 124.285C158.025 123.43 159.1 123.08 159.63 123.205C159.759 123.235 159.881 123.29 159.987 123.368C160.094 123.447 160.183 123.546 160.25 123.66C160.65 124.35 160.09 124.725 158.855 125.545C158.11 126.045 157.01 126.74 155.485 127.69L155.19 127.875C157.52 126.76 159.155 126.235 159.975 126.435C160.143 126.47 160.301 126.539 160.441 126.637C160.58 126.736 160.697 126.863 160.785 127.01C161.475 128.205 160.785 128.965 136.39 143.395C126.145 149.5 112.61 157.5 108.92 160.5C110.955 159.785 116.025 157.335 128.625 149.71C138.895 143.495 150.205 136.24 155.625 132.755C159.39 130.34 159.385 130.345 159.72 130.425C159.919 130.476 160.09 130.603 160.195 130.78C160.5 131.31 160.81 131.845 156.695 134.91C157.276 134.647 157.915 134.537 158.55 134.59C158.69 134.623 158.822 134.684 158.937 134.77C159.052 134.856 159.149 134.965 159.22 135.09C159.66 135.855 159.66 135.855 151.57 141.155C147.57 143.765 142.02 147.37 135.02 151.87C128.27 156.21 121.465 160.565 116.805 163.54C126.245 158.48 143.935 147.26 151.805 142.27C158.805 137.845 158.805 137.845 159.185 137.94C159.283 137.965 159.375 138.01 159.456 138.07C159.536 138.131 159.604 138.208 159.655 138.295C160.19 139.225 159.34 140.545 156.05 142.99C156.146 142.976 156.244 142.976 156.34 142.99C156.463 143.019 156.578 143.073 156.679 143.148C156.781 143.222 156.866 143.317 156.93 143.425C157.455 144.335 158.05 145.365 135.86 159.26C142.24 155.33 148.86 151.15 154.205 147.685C154.291 147.629 154.387 147.592 154.487 147.574C154.588 147.557 154.691 147.56 154.79 147.584C154.889 147.608 154.983 147.652 155.064 147.713C155.146 147.774 155.214 147.852 155.265 147.94C155.63 148.58 155.125 148.94 154.265 149.54C153.765 149.895 153.01 150.415 152.02 151.075C151.03 151.735 149.8 152.575 148.315 153.535C150.385 152.485 151.665 152.06 152.315 152.22C152.456 152.252 152.589 152.313 152.705 152.399C152.822 152.485 152.919 152.594 152.99 152.72C153.41 153.445 153.315 153.72 148.255 156.99C149.32 156.535 150.075 156.37 150.56 156.49C150.711 156.522 150.853 156.586 150.978 156.676C151.103 156.767 151.207 156.882 151.285 157.015C151.875 158.015 151.43 158.485 137.88 166.69C134 169.04 129.115 171.995 125.16 174.545L151.765 159.19C151.85 159.14 151.945 159.107 152.043 159.094C152.141 159.081 152.24 159.088 152.335 159.115C152.526 159.166 152.69 159.29 152.79 159.46C153.16 160.105 152.635 160.49 151.765 161.13C151.24 161.515 150.47 162.06 149.41 162.79C147.435 164.16 144.69 166.015 141.785 167.985C138.4 170.275 134.14 173.16 130.65 175.585C132.255 174.525 133.925 173.39 135.41 172.38C143.145 167.12 146.41 165.015 147.685 165.295C147.819 165.324 147.945 165.381 148.056 165.461C148.167 165.541 148.26 165.643 148.33 165.76C148.765 166.52 148.785 166.555 139.915 172.98C146.35 168.7 148.455 167.48 149.415 167.695C149.539 167.723 149.655 167.776 149.758 167.851C149.86 167.926 149.946 168.021 150.01 168.13C150.36 168.74 150.36 168.74 145.885 172.395C144.535 173.495 142.66 175.025 140.97 176.44C142.34 175.595 143.85 174.635 145.285 173.705C145.371 173.649 145.467 173.612 145.567 173.594C145.668 173.577 145.771 173.58 145.87 173.604C145.969 173.628 146.063 173.672 146.144 173.733C146.226 173.794 146.294 173.872 146.345 173.96C146.625 174.46 146.52 174.56 145.495 175.66C144.66 176.555 143.945 177.34 143.34 178.01C147.88 175.305 148.045 175.35 148.365 175.43C148.462 175.455 148.554 175.5 148.633 175.561C148.713 175.622 148.78 175.698 148.83 175.785C148.88 175.87 148.913 175.964 148.926 176.062C148.939 176.16 148.933 176.26 148.907 176.355C148.882 176.45 148.837 176.54 148.777 176.618C148.716 176.696 148.641 176.761 148.555 176.81C148.483 176.854 148.403 176.884 148.32 176.9C147.655 177.2 143.96 179.375 140.705 181.345C140.596 181.395 140.476 181.419 140.355 181.415ZM147.57 176.5C147.65 176.634 147.768 176.741 147.91 176.805C147.769 176.739 147.651 176.633 147.57 176.5ZM129.11 168.865C124.79 171.56 120.54 174.26 117.77 176.185C120.785 174.39 125.165 171.5 129.11 168.865ZM147.705 155.55C142.8 158.27 134.865 163.38 128.835 167.275C131.055 165.89 133.585 164.325 136.46 162.555C140.42 160.12 144.685 157.5 147.705 155.55ZM147.385 159.05C144.72 160.47 140.675 163.05 136.73 165.625L137.145 165.375C140.83 163.135 144.83 160.71 147.385 159.04V159.05ZM122.8 147.82C119.5 149.885 116.5 151.83 114 153.5C116.59 151.845 119.66 149.86 122.8 147.82ZM158.395 128.155C156.945 128.655 153.87 130.055 147.365 133.96C140.86 137.865 133 143 126 147.55C122.945 149.55 120.375 151.2 118.205 152.59C122.415 150 128.07 146.615 135.625 142.145C144.82 136.69 155.1 130.61 158.395 128.155ZM153.7 142.825L152.64 143.5C149.14 145.723 145.825 147.815 142.695 149.775C146.87 147.265 150.815 144.81 153.7 142.825ZM120.54 139.5C115.955 142.27 111.5 145 108.54 146.865C110.04 146.1 111.845 145.075 113.885 143.865C115.89 142.5 118.135 141.025 120.54 139.5ZM132.28 126.29C130.36 127.57 128.47 128.84 126.7 130.025C123.2 132.385 120.09 134.445 117.395 136.215L120.15 134.515C130.275 128.275 144.895 119.255 149.195 115.985C147.605 116.696 146.063 117.511 144.58 118.425C142.87 119.62 140.695 121.055 137.94 122.795C136.145 123.92 134.24 125.09 132.28 126.28V126.29Z" fill="#67CF94"/>
<g opacity="0.4">
<path d="M140.355 181.415C140.293 181.414 140.231 181.406 140.17 181.39C139.975 181.339 139.808 181.213 139.705 181.04C139.445 180.585 139.305 180.34 141.415 177.92C136.865 180.705 136.38 180.59 136.115 180.525C135.908 180.464 135.73 180.329 135.615 180.145C135.195 179.42 135.115 179.275 143.535 172.385C142.185 173.26 140.78 174.2 139.535 175.03C132.125 179.975 129.82 181.38 128.8 181.145C128.677 181.117 128.56 181.064 128.458 180.989C128.355 180.914 128.27 180.819 128.205 180.71C127.755 179.93 127.755 179.93 137.705 172.74L139.675 171.32C138.525 172.085 137.38 172.865 136.33 173.58C128.5 178.905 124.935 181.205 123.6 180.905C123.461 180.874 123.33 180.813 123.216 180.727C123.102 180.64 123.008 180.531 122.94 180.405C122.44 179.56 122.34 179.37 136.81 169.54L117.78 180.54C117.611 180.634 117.411 180.658 117.224 180.607C117.037 180.556 116.878 180.433 116.78 180.265C116.445 179.685 116.705 178.975 118.08 177.765C115.89 179.025 114.62 179.53 113.995 179.385C113.865 179.355 113.742 179.299 113.634 179.221C113.526 179.143 113.435 179.044 113.365 178.93C112.95 178.21 113.11 177.545 118.405 173.985C112.945 177.4 110.93 178.405 110.145 178.22C110.029 178.193 109.919 178.142 109.822 178.07C109.726 177.999 109.645 177.909 109.585 177.805C109.22 177.18 109.56 176.955 110.815 176.125L113.58 174.32L117.81 171.585C113.15 174.005 112.45 173.84 112.06 173.745C111.929 173.715 111.805 173.659 111.696 173.58C111.587 173.501 111.495 173.401 111.425 173.285C111.333 173.116 111.31 172.917 111.36 172.731C111.41 172.545 111.53 172.385 111.695 172.285C126.37 163.585 149.025 149.63 154.485 145.015C149.04 147.49 132.76 157.6 123.485 163.375C111.54 170.8 111.485 170.785 110.985 170.655C110.882 170.632 110.784 170.588 110.698 170.526C110.612 170.464 110.54 170.386 110.485 170.295C110.08 169.595 110.1 169.145 114.88 166.185C112.68 167.22 111.23 167.685 110.59 167.535C110.45 167.502 110.318 167.441 110.203 167.355C110.088 167.269 109.991 167.16 109.92 167.035C109.824 166.869 109.797 166.672 109.842 166.486C109.888 166.3 110.004 166.138 110.165 166.035C124.975 156.6 145.81 143.24 154.31 137.595C151.945 138.8 148.77 140.595 145.24 142.71C142.385 144.545 139 146.68 134.995 149.17C129.705 152.465 124.355 155.73 119.9 158.43C109.14 165.22 109.01 165.19 108.485 165.06C108.382 165.035 108.285 164.99 108.199 164.928C108.113 164.865 108.04 164.786 107.985 164.695C107.893 164.526 107.87 164.327 107.92 164.141C107.97 163.955 108.09 163.795 108.255 163.695C111.495 161.77 115.07 159.625 118.78 157.375L120.73 156.145C112.96 160.59 108.665 162.535 107.4 162.225C107.254 162.196 107.115 162.137 106.994 162.051C106.872 161.965 106.771 161.854 106.695 161.725C106.23 160.925 106.89 159.905 112.37 156.325C108.835 158.48 107.435 159.12 106.84 158.975C106.727 158.949 106.62 158.901 106.526 158.832C106.432 158.763 106.354 158.676 106.295 158.575C105.98 158.03 105.725 157.575 109.385 154.92C107.415 155.92 106.17 156.325 105.575 156.18C105.44 156.151 105.313 156.094 105.201 156.013C105.089 155.932 104.995 155.829 104.925 155.71C104.875 155.624 104.842 155.529 104.829 155.43C104.817 155.331 104.824 155.231 104.85 155.135C104.903 154.943 105.029 154.78 105.2 154.68C121.425 145.455 145.995 130.845 153.475 124.95C145.27 129.48 122.65 142.76 106.865 152.12C106.78 152.17 106.686 152.203 106.588 152.217C106.49 152.231 106.39 152.225 106.294 152.2C106.198 152.174 106.108 152.131 106.03 152.071C105.951 152.011 105.885 151.936 105.835 151.85C105.759 151.713 105.711 151.561 105.694 151.405C105.678 151.248 105.694 151.09 105.74 150.94C106.019 150.306 106.439 149.745 106.97 149.3C105.805 149.775 105.025 149.95 104.58 149.84C104.442 149.806 104.312 149.745 104.198 149.659C104.085 149.573 103.99 149.464 103.92 149.34C103.47 148.565 104.33 147.965 105.63 147.06C106.63 146.385 108.045 145.45 110.025 144.21C113.72 141.9 118.79 138.84 124.16 135.605C130.195 131.965 137.365 127.64 143.06 124.06C130.875 131.06 111.685 142.27 102.47 147.66C102.296 147.759 102.089 147.786 101.895 147.735C101.8 147.71 101.711 147.666 101.632 147.606C101.554 147.546 101.489 147.471 101.44 147.385C101.055 146.715 100.94 146.52 107.565 142.35C104.97 143.775 103.33 144.39 102.495 144.195C102.338 144.162 102.188 144.097 102.058 144.003C101.927 143.909 101.817 143.789 101.735 143.65C101.235 142.79 101.235 142.79 113.265 135.805C118.83 132.575 125.47 128.715 131.58 125.005C136.71 121.595 140.725 119.005 143.77 117.205C145.367 116.143 146.883 114.963 148.305 113.675C142.06 116.48 117.4 131.39 101.805 141.09C101.637 141.196 101.433 141.231 101.239 141.187C101.045 141.143 100.876 141.023 100.77 140.855C100.664 140.687 100.629 140.483 100.673 140.289C100.717 140.095 100.837 139.926 101.005 139.82L105.845 136.74C101.845 138.795 100.345 139.14 99.7302 138.985C99.5907 138.953 99.4595 138.891 99.345 138.805C99.2305 138.719 99.1352 138.61 99.0652 138.485C98.9682 138.319 98.9396 138.122 98.9853 137.935C99.031 137.749 99.1475 137.587 99.3102 137.485L109.965 130.655C101.255 135.575 100.55 135.4 100.12 135.29C100.006 135.263 99.8981 135.214 99.8035 135.144C99.709 135.074 99.6296 134.986 99.5702 134.885C99.4766 134.717 99.4509 134.52 99.4984 134.334C99.5458 134.148 99.6628 133.987 99.8252 133.885C111.055 126.94 127.01 116.885 136.325 110.58C128.8 114.915 117.825 121.355 110.105 125.895L101.5 130.895C99.5902 132.01 98.6652 132.555 98.1702 132.805L98.0402 132.885C97.6952 133.05 97.6102 133.025 97.4652 132.985C97.3241 132.947 97.1971 132.869 97.0997 132.76C97.0023 132.652 96.9388 132.517 96.9171 132.372C96.8953 132.228 96.9162 132.08 96.9771 131.947C97.0381 131.815 97.1365 131.703 97.2602 131.625C109.17 124.26 126.76 113.16 134.64 107.7C130.445 110.13 124.18 114.125 119.14 117.35C105.01 126.35 100.715 128.94 99.4702 128.63C99.3519 128.602 99.2404 128.55 99.1424 128.478C99.0445 128.406 98.9621 128.315 98.9002 128.21C98.5902 127.665 98.3652 127.28 103.06 123.895C101.78 124.46 100.915 124.675 100.41 124.555C100.267 124.523 100.133 124.462 100.014 124.376C99.8955 124.29 99.7955 124.181 99.7202 124.055C99.6274 123.888 99.6016 123.691 99.648 123.506C99.6944 123.32 99.8096 123.159 99.9702 123.055C109.195 117.25 123.215 108.15 128.035 104.385C123.815 106.45 114.605 112.385 109.185 115.855C100.33 121.5 100 121.64 99.4352 121.5C99.3316 121.476 99.2339 121.431 99.148 121.369C99.0621 121.306 98.9897 121.226 98.9352 121.135C98.5352 120.45 98.1852 119.84 106.855 113.88C105.785 114.56 104.69 115.265 103.57 115.985C103.478 116.06 103.369 116.113 103.253 116.14C103.137 116.167 103.016 116.167 102.9 116.14C102.802 116.116 102.709 116.073 102.628 116.012C102.547 115.951 102.48 115.873 102.43 115.785C101.895 114.86 102.665 114.065 108.75 109.4C108.639 109.376 108.533 109.329 108.441 109.262C108.349 109.195 108.272 109.109 108.215 109.01C108.122 108.838 108.1 108.636 108.154 108.447C108.207 108.259 108.331 108.099 108.5 108C108.641 107.923 108.801 107.89 108.96 107.905C109.751 107.446 110.517 106.945 111.255 106.405C113.695 104.69 114.385 104.28 114.98 104.405C115.096 104.43 115.206 104.479 115.302 104.549C115.399 104.619 115.48 104.708 115.54 104.81C115.97 105.56 115.635 106.01 111.54 109.18C112.68 108.475 113.855 107.745 115.04 107.025C126.6 99.955 127.495 100.165 128.04 100.295C128.16 100.321 128.273 100.372 128.372 100.444C128.471 100.516 128.554 100.609 128.615 100.715C128.709 100.882 128.736 101.079 128.689 101.265C128.643 101.451 128.527 101.612 128.365 101.715C122.725 105.215 116.865 109.005 111.95 112.28C123.36 104.995 128.845 101.78 130.39 102.17C130.524 102.2 130.651 102.257 130.762 102.338C130.873 102.419 130.966 102.522 131.035 102.64C131.51 103.465 131.855 104.065 116.07 114.455L113.8 115.955C116.98 113.955 120.2 111.855 122.8 110.155C132.925 103.585 134.565 102.62 135.33 102.8C135.435 102.827 135.533 102.876 135.619 102.942C135.705 103.008 135.777 103.091 135.83 103.185C135.926 103.351 135.954 103.548 135.908 103.734C135.863 103.92 135.747 104.082 135.585 104.185C125.795 110.425 111.495 119.74 104.425 124.745C108.225 122.505 113.61 119.07 118.3 116.08C133.165 106.58 138.015 103.705 139.385 104.035C139.508 104.064 139.623 104.118 139.724 104.193C139.826 104.267 139.911 104.362 139.975 104.47C140.34 105.105 140.605 105.555 131.91 111.36C144.095 104.29 144.33 104.36 144.715 104.45C144.813 104.475 144.905 104.52 144.986 104.58C145.066 104.641 145.134 104.718 145.185 104.805C145.685 105.67 146.04 106.305 123.05 120.995C121.38 122.065 119.705 123.13 118.05 124.17C127.15 118.79 137.995 112.17 146.21 107.04C146.296 106.988 146.392 106.953 146.491 106.937C146.591 106.922 146.692 106.926 146.79 106.95C146.987 107 147.156 107.126 147.26 107.3C147.615 107.92 147.09 108.3 146.535 108.68C146.195 108.915 145.695 109.255 145.035 109.68C143.825 110.485 142.035 111.68 139.725 113.18C135.835 115.715 130.4 119.23 123.57 123.63C116.99 127.865 110.36 132.13 105.815 135.035C111.82 131.86 123.5 125 146 110.625C149.24 108.56 149.24 108.56 149.57 108.625C149.669 108.649 149.762 108.693 149.844 108.754C149.925 108.815 149.994 108.892 150.045 108.98C150.23 109.3 150.335 109.48 149.735 110.015C148.935 110.715 146.945 112.015 142.405 114.965C148.835 111.44 149.435 111.585 149.825 111.685C149.939 111.711 150.046 111.759 150.139 111.828C150.233 111.897 150.312 111.984 150.37 112.085C150.64 112.555 150.705 113.12 149.705 114.24C150.1 114.117 150.517 114.086 150.925 114.15C151.088 114.184 151.242 114.252 151.378 114.349C151.513 114.447 151.626 114.571 151.71 114.715C152.21 115.575 152.46 116.015 137.605 125.385C153.335 116.275 153.49 116.315 153.865 116.415C153.961 116.44 154.052 116.483 154.131 116.543C154.21 116.603 154.276 116.679 154.325 116.765C154.825 117.595 153.925 118.43 151.775 120C150.39 121 148.435 122.32 145.815 124C154.55 118.545 156.74 117.415 157.52 117.605C157.631 117.632 157.734 117.681 157.825 117.749C157.917 117.816 157.993 117.902 158.05 118C158.1 118.085 158.133 118.179 158.146 118.277C158.159 118.375 158.152 118.475 158.125 118.57C158.1 118.667 158.055 118.757 157.994 118.836C157.933 118.915 157.857 118.981 157.77 119.03C152.67 121.92 147.485 124.91 142.475 127.86L137.285 131.14C127.08 137.6 119.635 142.245 114.41 145.285C112.755 146.42 111.34 147.43 110.205 148.285C114.855 145.535 122.775 140.86 130.705 136.235C155.705 121.605 156.085 121.71 156.56 121.835C156.658 121.86 156.75 121.905 156.831 121.965C156.911 122.026 156.979 122.103 157.03 122.19C157.103 122.318 157.148 122.459 157.165 122.605C157.181 122.751 157.168 122.899 157.125 123.04C156.978 123.524 156.695 123.956 156.31 124.285C158.025 123.43 159.1 123.08 159.63 123.205C159.759 123.235 159.881 123.29 159.987 123.368C160.094 123.447 160.183 123.546 160.25 123.66C160.65 124.35 160.09 124.725 158.855 125.545C158.11 126.045 157.01 126.74 155.485 127.69L155.19 127.875C157.52 126.76 159.155 126.235 159.975 126.435C160.143 126.47 160.301 126.539 160.441 126.637C160.58 126.736 160.697 126.863 160.785 127.01C161.475 128.205 160.785 128.965 136.39 143.395C126.145 149.5 112.61 157.5 108.92 160.5C110.955 159.785 116.025 157.335 128.625 149.71C138.895 143.495 150.205 136.24 155.625 132.755C159.39 130.34 159.385 130.345 159.72 130.425C159.919 130.476 160.09 130.603 160.195 130.78C160.5 131.31 160.81 131.845 156.695 134.91C157.276 134.647 157.915 134.537 158.55 134.59C158.69 134.623 158.822 134.684 158.937 134.77C159.052 134.856 159.149 134.965 159.22 135.09C159.66 135.855 159.66 135.855 151.57 141.155C147.57 143.765 142.02 147.37 135.02 151.87C128.27 156.21 121.465 160.565 116.805 163.54C126.245 158.48 143.935 147.26 151.805 142.27C158.805 137.845 158.805 137.845 159.185 137.94C159.283 137.965 159.375 138.01 159.456 138.07C159.536 138.131 159.604 138.208 159.655 138.295C160.19 139.225 159.34 140.545 156.05 142.99C156.146 142.976 156.244 142.976 156.34 142.99C156.463 143.019 156.578 143.073 156.679 143.148C156.781 143.222 156.866 143.317 156.93 143.425C157.455 144.335 158.05 145.365 135.86 159.26C142.24 155.33 148.86 151.15 154.205 147.685C154.291 147.629 154.387 147.592 154.487 147.574C154.588 147.557 154.691 147.56 154.79 147.584C154.889 147.608 154.983 147.652 155.064 147.713C155.146 147.774 155.214 147.852 155.265 147.94C155.63 148.58 155.125 148.94 154.265 149.54C153.765 149.895 153.01 150.415 152.02 151.075C151.03 151.735 149.8 152.575 148.315 153.535C150.385 152.485 151.665 152.06 152.315 152.22C152.456 152.252 152.589 152.313 152.705 152.399C152.822 152.485 152.919 152.594 152.99 152.72C153.41 153.445 153.315 153.72 148.255 156.99C149.32 156.535 150.075 156.37 150.56 156.49C150.711 156.522 150.853 156.586 150.978 156.676C151.103 156.767 151.207 156.882 151.285 157.015C151.875 158.015 151.43 158.485 137.88 166.69C134 169.04 129.115 171.995 125.16 174.545L151.765 159.19C151.85 159.14 151.945 159.107 152.043 159.094C152.141 159.081 152.24 159.088 152.335 159.115C152.526 159.166 152.69 159.29 152.79 159.46C153.16 160.105 152.635 160.49 151.765 161.13C151.24 161.515 150.47 162.06 149.41 162.79C147.435 164.16 144.69 166.015 141.785 167.985C138.4 170.275 134.14 173.16 130.65 175.585C132.255 174.525 133.925 173.39 135.41 172.38C143.145 167.12 146.41 165.015 147.685 165.295C147.819 165.324 147.945 165.381 148.056 165.461C148.167 165.541 148.26 165.643 148.33 165.76C148.765 166.52 148.785 166.555 139.915 172.98C146.35 168.7 148.455 167.48 149.415 167.695C149.539 167.723 149.655 167.776 149.758 167.851C149.86 167.926 149.946 168.021 150.01 168.13C150.36 168.74 150.36 168.74 145.885 172.395C144.535 173.495 142.66 175.025 140.97 176.44C142.34 175.595 143.85 174.635 145.285 173.705C145.371 173.649 145.467 173.612 145.567 173.594C145.668 173.577 145.771 173.58 145.87 173.604C145.969 173.628 146.063 173.672 146.144 173.733C146.226 173.794 146.294 173.872 146.345 173.96C146.625 174.46 146.52 174.56 145.495 175.66C144.66 176.555 143.945 177.34 143.34 178.01C147.88 175.305 148.045 175.35 148.365 175.43C148.462 175.455 148.554 175.5 148.633 175.561C148.713 175.622 148.78 175.698 148.83 175.785C148.88 175.87 148.913 175.964 148.926 176.062C148.939 176.16 148.933 176.26 148.907 176.355C148.882 176.45 148.837 176.54 148.777 176.618C148.716 176.696 148.641 176.761 148.555 176.81C148.483 176.854 148.403 176.884 148.32 176.9C147.655 177.2 143.96 179.375 140.705 181.345C140.596 181.395 140.476 181.419 140.355 181.415ZM147.57 176.5C147.65 176.634 147.768 176.741 147.91 176.805C147.769 176.739 147.651 176.633 147.57 176.5ZM129.11 168.865C124.79 171.56 120.54 174.26 117.77 176.185C120.785 174.39 125.165 171.5 129.11 168.865ZM147.705 155.55C142.8 158.27 134.865 163.38 128.835 167.275C131.055 165.89 133.585 164.325 136.46 162.555C140.42 160.12 144.685 157.5 147.705 155.55ZM147.385 159.05C144.72 160.47 140.675 163.05 136.73 165.625L137.145 165.375C140.83 163.135 144.83 160.71 147.385 159.04V159.05ZM122.8 147.82C119.5 149.885 116.5 151.83 114 153.5C116.59 151.845 119.66 149.86 122.8 147.82ZM158.395 128.155C156.945 128.655 153.87 130.055 147.365 133.96C140.86 137.865 133 143 126 147.55C122.945 149.55 120.375 151.2 118.205 152.59C122.415 150 128.07 146.615 135.625 142.145C144.82 136.69 155.1 130.61 158.395 128.155ZM153.7 142.825L152.64 143.5C149.14 145.723 145.825 147.815 142.695 149.775C146.87 147.265 150.815 144.81 153.7 142.825ZM120.54 139.5C115.955 142.27 111.5 145 108.54 146.865C110.04 146.1 111.845 145.075 113.885 143.865C115.89 142.5 118.135 141.025 120.54 139.5ZM132.28 126.29C130.36 127.57 128.47 128.84 126.7 130.025C123.2 132.385 120.09 134.445 117.395 136.215L120.15 134.515C130.275 128.275 144.895 119.255 149.195 115.985C147.605 116.696 146.063 117.511 144.58 118.425C142.87 119.62 140.695 121.055 137.94 122.795C136.145 123.92 134.24 125.09 132.28 126.28V126.29Z" fill="white"/>
</g>
<path d="M129.735 101.275H129.4C111.27 101.61 97.605 115.48 97.605 132.545C97.597 137.641 98.84 142.661 101.225 147.165C102.225 149.54 104.645 155.355 107.04 162.875C109.26 169.815 110.42 176.8 110.42 177.875C110.42 177.975 110.42 178.08 110.42 178.195C110.41 178.509 110.463 178.821 110.576 179.114C110.689 179.407 110.86 179.674 111.078 179.9C111.296 180.126 111.558 180.305 111.847 180.428C112.135 180.551 112.446 180.615 112.76 180.615H145.23C145.544 180.615 145.855 180.551 146.144 180.428C146.432 180.305 146.694 180.126 146.912 179.9C147.13 179.674 147.301 179.407 147.414 179.114C147.527 178.821 147.58 178.509 147.57 178.195C147.57 178.08 147.57 177.975 147.57 177.875C147.57 176.82 148.73 169.835 150.945 162.875C153.345 155.375 155.74 149.54 156.76 147.165C159.254 142.447 160.499 137.17 160.377 131.835C160.255 126.5 158.771 121.285 156.065 116.686C153.359 112.087 149.521 108.256 144.917 105.559C140.313 102.861 135.095 101.387 129.76 101.275H129.735Z" stroke="#263238" stroke-width="2" stroke-linecap="round" stroke-linejoin="round"/>
<path d="M140.69 106.295C139.785 105.888 138.857 105.535 137.91 105.235" stroke="#263238" stroke-width="3" stroke-linecap="round" stroke-linejoin="round"/>
<path d="M151.11 114.235C151.11 114.235 148.56 110.185 142.955 107.43" stroke="#263238" stroke-width="3" stroke-linecap="round" stroke-linejoin="round"/>
<path d="M126.92 166.435V150.375C126.92 150.375 128.155 142.555 124.09 142.555C120.025 142.555 120.335 146.625 125.025 151C129.715 155.375 136.915 151.315 137.855 147.875C138.795 144.435 136.29 142.875 134.725 145.685C133.16 148.495 134.725 180.41 134.725 180.41" stroke="#263238" stroke-width="3" stroke-linecap="round" stroke-linejoin="round"/>
<path d="M118.225 93.15L119.955 98.595" stroke="#263238" stroke-width="3" stroke-linecap="round" stroke-linejoin="round"/>
<path d="M160.615 105.025L154.92 109.48" stroke="#263238" stroke-width="3" stroke-linecap="round" stroke-linejoin="round"/>
<path d="M139.5 89.175L137.355 98.595" stroke="#263238" stroke-width="3" stroke-linecap="round" stroke-linejoin="round"/>
<path d="M146.135 182.955H111.84C111.401 182.955 111.045 183.311 111.045 183.75V184.145C111.045 184.584 111.401 184.94 111.84 184.94H146.135C146.574 184.94 146.93 184.584 146.93 184.145V183.75C146.93 183.311 146.574 182.955 146.135 182.955Z" fill="#263238" stroke="#263238" stroke-linecap="round" stroke-linejoin="round"/>
<path d="M146.135 187.425H111.84C111.401 187.425 111.045 187.781 111.045 188.22V188.615C111.045 189.054 111.401 189.41 111.84 189.41H146.135C146.574 189.41 146.93 189.054 146.93 188.615V188.22C146.93 187.781 146.574 187.425 146.135 187.425Z" fill="#263238" stroke="#263238" stroke-linecap="round" stroke-linejoin="round"/>
<path d="M146.135 191.895H111.84C111.401 191.895 111.045 192.251 111.045 192.69V193.085C111.045 193.524 111.401 193.88 111.84 193.88H146.135C146.574 193.88 146.93 193.524 146.93 193.085V192.69C146.93 192.251 146.574 191.895 146.135 191.895Z" fill="#263238" stroke="#263238" stroke-linecap="round" stroke-linejoin="round"/>
<path d="M130.04 196.26H112.43L117.5 203.26C117.935 203.861 118.506 204.35 119.167 204.688C119.827 205.025 120.558 205.201 121.3 205.2H136.8C137.543 205.199 138.276 205.022 138.938 204.683C139.599 204.344 140.171 203.853 140.605 203.25L145.635 196.285L130.04 196.26Z" fill="#263238" stroke="#263238" stroke-linecap="round" stroke-linejoin="round"/>
<path d="M167.845 121.5C167.845 121.5 164.645 125 162.025 126.74C159.405 128.48 157.58 130.795 159.985 131.98C161.43 132.69 163.485 131.69 163.485 131.69C163.485 131.69 160.28 132.56 159.7 135.475C159.12 138.39 165.5 137.21 165.5 137.21C165.5 137.21 160.845 140.41 162.3 141.575C163.755 142.74 166.665 141.865 168.12 141.865C169.575 141.865 176.855 137.21 178.62 137.21C180.385 137.21 183.86 140.995 183.86 143.905C183.86 146.815 188.5 146.525 189.095 137.5C189.69 128.475 187.35 120.91 183.565 118.58C179.78 116.25 167.845 121.5 167.845 121.5Z" fill="white" stroke="#263238" stroke-miterlimit="10" stroke-linecap="round"/>
<path d="M166.1 131.385L177.715 127.045C177.715 127.045 182.815 125.94 186.475 131.97" stroke="#263238" stroke-miterlimit="10" stroke-linecap="round"/>
<path d="M168.135 134.88L178.635 133.135C178.635 133.135 183.295 132.845 186.205 138.375" stroke="#263238" stroke-miterlimit="10" stroke-linecap="round"/>
<path d="M180.945 141.865L173.085 143.615L177.74 162.24C177.74 162.24 181.82 170.39 182.98 173.885C184.14 177.38 196.08 189 196.08 189L210.05 175.61C210.05 175.61 203.65 168.045 203.36 166.295C203.07 164.545 201.9 144.175 201.9 141.265C201.9 138.355 196.08 131.365 196.08 131.365C196.08 131.365 193.69 127.94 192.525 122.12C191.36 116.3 186.025 113.905 183.105 114.195C180.185 114.485 172.21 115.36 169.01 117.695C165.81 120.03 162.895 122.935 165.81 123.81C170.645 125.26 178.555 118.81 182.37 123.27C184.12 125.305 186.185 134.27 186.475 135.455C186.475 135.455 185.02 140.985 180.945 141.855" fill="white"/>
<path d="M180.945 141.865L173.085 143.615L177.74 162.24C177.74 162.24 181.82 170.39 182.98 173.885C184.14 177.38 196.08 189 196.08 189L210.05 175.61C210.05 175.61 203.65 168.045 203.36 166.295C203.07 164.545 201.9 144.175 201.9 141.265C201.9 138.355 196.08 131.365 196.08 131.365C196.08 131.365 193.69 127.94 192.525 122.12C191.36 116.3 186.025 113.905 183.105 114.195C180.185 114.485 172.21 115.36 169.01 117.695C165.81 120.03 162.895 122.935 165.81 123.81C170.645 125.26 178.555 118.81 182.37 123.27C184.12 125.305 186.185 134.27 186.475 135.455C186.475 135.455 185.02 140.985 180.945 141.855" stroke="#263238" stroke-miterlimit="10" stroke-linecap="round"/>
<path d="M151.635 114.81C151.724 114.717 151.844 114.658 151.972 114.645C152.101 114.633 152.229 114.666 152.335 114.74L153.525 115.565C153.643 115.648 153.723 115.773 153.748 115.915C153.773 116.056 153.742 116.202 153.66 116.32C153.578 116.437 153.454 116.517 153.313 116.542C153.172 116.568 153.028 116.536 152.91 116.455L151.72 115.625C151.603 115.543 151.523 115.418 151.498 115.278C151.472 115.137 151.504 114.992 151.585 114.875C151.599 114.851 151.616 114.829 151.635 114.81Z" fill="#263238" stroke="#263238" stroke-miterlimit="10" stroke-linecap="round"/>
<path d="M153 115.77C153.202 115.554 153.475 115.418 153.769 115.388C154.063 115.358 154.358 115.435 154.6 115.605L158.33 117.525L194.95 141.615C195.262 141.832 195.529 142.108 195.734 142.428C195.94 142.748 196.08 143.106 196.147 143.48C196.215 143.854 196.207 144.238 196.126 144.609C196.045 144.981 195.892 145.333 195.675 145.645C195.458 145.957 195.182 146.224 194.862 146.429C194.542 146.634 194.184 146.775 193.81 146.842C193.436 146.909 193.052 146.902 192.681 146.821C192.309 146.74 191.957 146.587 191.645 146.37L156.105 120.15L153.2 117.65C153.067 117.557 152.953 117.44 152.865 117.303C152.777 117.166 152.717 117.014 152.689 116.854C152.66 116.694 152.663 116.531 152.697 116.372C152.732 116.213 152.797 116.063 152.89 115.93C152.921 115.873 152.958 115.82 153 115.77Z" fill="#67CF94" stroke="#263238" stroke-miterlimit="10" stroke-linecap="round"/>
<path d="M194.955 141.615L184.385 134.665C183.569 134.901 182.85 135.391 182.332 136.064C181.813 136.736 181.522 137.556 181.5 138.405C181.501 138.572 181.514 138.74 181.54 138.905L191.65 146.365C192.281 146.803 193.059 146.973 193.815 146.837C194.571 146.701 195.242 146.271 195.68 145.64C196.118 145.009 196.288 144.231 196.152 143.475C196.016 142.719 195.586 142.048 194.955 141.61V141.615Z" fill="#263238" stroke="#263238" stroke-miterlimit="10" stroke-linecap="round"/>
<path d="M183 173.885C179.8 169.23 175.725 157.295 174 154.965C172.275 152.635 167.57 147.465 165.825 142.245C164.08 137.025 162.935 132.845 162.935 128.475C162.935 124.105 166.69 123.355 169.6 128.015C172.51 132.675 176 139.83 176 139.83C176 139.83 178.33 142.74 183 141.865" fill="white"/>
<path d="M183 173.885C179.8 169.23 175.725 157.295 174 154.965C172.275 152.635 167.57 147.465 165.825 142.245C164.08 137.025 162.935 132.845 162.935 128.475C162.935 124.105 166.69 123.355 169.6 128.015C172.51 132.675 176 139.83 176 139.83C176 139.83 178.33 142.74 183 141.865" stroke="#263238" stroke-miterlimit="10" stroke-linecap="round"/>
<path d="M166.545 126.655L167.545 128.6C167.545 128.6 167.325 128.6 165.77 129.485C164.842 130.014 164.063 130.769 163.505 131.68C163.505 131.68 162.005 127.49 163.33 126.18C163.652 125.84 164.078 125.617 164.54 125.545C164.948 125.502 165.359 125.586 165.718 125.784C166.076 125.983 166.365 126.287 166.545 126.655Z" fill="white" stroke="#263238" stroke-miterlimit="10" stroke-linecap="round"/>
<path d="M207 169.68C207 169.68 199.295 171.96 195.295 175.96C192.646 178.66 190.166 181.52 187.87 184.525L195.01 192.805C195.01 192.805 201.01 185.95 205.01 182.805C207.735 180.713 210.596 178.805 213.575 177.095L207 169.68Z" fill="white" stroke="#263238" stroke-miterlimit="10" stroke-linecap="round"/>
<path d="M214.155 229.92L191.6 193.66C191.6 193.66 197.31 185.095 202.165 180.815C207.02 176.535 213.3 175.39 213.3 175.39L241.5 202.455" fill="#263238"/>
<path d="M214.155 229.92L191.6 193.66C191.6 193.66 197.31 185.095 202.165 180.815C207.02 176.535 213.3 175.39 213.3 175.39L241.5 202.455" stroke="#263238" stroke-miterlimit="10" stroke-linecap="round"/>
<path d="M170.7 137.245L171.2 137.195" stroke="#263238" stroke-miterlimit="10" stroke-linecap="round"/>
<path d="M166.345 139.665C166.345 139.665 166.61 138.07 169.815 137.4" stroke="#263238" stroke-miterlimit="10" stroke-linecap="round"/>
<path d="M169.825 138.54C169.825 138.54 169.6 139.215 167.355 140.115" stroke="#263238" stroke-miterlimit="10" stroke-linecap="round"/>
<path d="M169.735 136.405C168.612 136.581 167.544 137.014 166.615 137.67" stroke="#263238" stroke-miterlimit="10" stroke-linecap="round"/>
<path d="M99.3796 86.6749C99.3796 86.6749 104.1 87.0599 107.09 88.0549C110.08 89.0499 113.02 89.0549 112.475 86.4449C112.15 84.8699 110.1 83.8649 110.1 83.8649C110.1 83.8649 112.755 85.8649 115.41 84.5299C118.065 83.1949 113.215 78.8649 113.215 78.8649C113.215 78.8649 118.605 80.5749 118.63 78.7099C118.655 76.8449 116.18 75.0849 115.285 73.9349C114.39 72.7849 106.25 69.8999 105.175 68.5249C104.1 67.1499 104.945 62.0649 107.245 60.2749C109.545 58.4849 106.455 54.9999 98.9996 60.0699C91.5446 65.1399 86.9996 71.6349 87.4546 76.0699C87.9096 80.5049 99.3796 86.6749 99.3796 86.6749Z" fill="white" stroke="#263238" stroke-miterlimit="10" stroke-linecap="round"/>
<path d="M108.265 81.9999L97.7048 75.4999C97.7048 75.4999 93.7048 72.1549 96.2048 65.5649" stroke="#263238" stroke-miterlimit="10" stroke-linecap="round"/>
<path d="M109.77 78.225L101.96 71.025C101.96 71.025 98.8697 67.525 101.46 61.835" stroke="#263238" stroke-miterlimit="10" stroke-linecap="round"/>
<path d="M107.425 63.825L113.625 68.96L125.5 53.845C125.5 53.845 133.15 50.41 135.165 47.345C137.18 44.28 138.895 27.68 138.895 27.68L119.7 25C119.7 25 117.745 34.72 116.555 36.035C115.365 37.35 96.3948 45.85 94.0998 47.64C91.8048 49.43 89.8598 58.31 89.8598 58.31C88.8364 61.9203 87.498 65.4338 85.8598 68.81C81.4848 77.67 82.2648 76.99 84.2798 79.11C86.2948 81.23 91.1998 85.54 95.0048 86.64C98.8098 87.74 103.54 91.67 102.48 86.865C101.39 81.94 90.7098 79.865 91.8848 74.125C92.4198 71.495 98.2448 64.35 98.9848 63.405C98.9848 63.405 104.24 61.16 107.435 63.84" fill="white"/>
<path d="M107.425 63.825L113.625 68.96L125.5 53.845C125.5 53.845 133.15 50.41 135.165 47.345C137.18 44.28 138.895 27.68 138.895 27.68L119.7 25C119.7 25 117.745 34.72 116.555 36.035C115.365 37.35 96.3948 45.85 94.0998 47.64C91.8048 49.43 89.8598 58.31 89.8598 58.31C88.8364 61.9203 87.498 65.4338 85.8598 68.81C81.4848 77.67 82.2648 76.99 84.2798 79.11C86.2948 81.23 91.1998 85.54 95.0048 86.64C98.8098 87.74 103.54 91.67 102.48 86.865C101.39 81.94 90.7098 79.865 91.8848 74.125C92.4198 71.495 98.2448 64.35 98.9848 63.405C98.9848 63.405 104.24 61.16 107.435 63.84" stroke="#263238" stroke-miterlimit="10" stroke-linecap="round"/>
<path d="M104.06 103.575C103.93 103.566 103.808 103.51 103.717 103.418C103.625 103.326 103.569 103.205 103.56 103.075L103.485 101.625C103.475 101.551 103.48 101.476 103.501 101.404C103.521 101.333 103.556 101.266 103.604 101.209C103.651 101.151 103.71 101.104 103.776 101.071C103.843 101.037 103.916 101.018 103.99 101.014C104.064 101.009 104.139 101.021 104.208 101.047C104.278 101.073 104.342 101.113 104.395 101.165C104.449 101.216 104.491 101.279 104.52 101.348C104.548 101.417 104.562 101.491 104.56 101.565L104.64 103.015C104.648 103.157 104.6 103.296 104.507 103.402C104.413 103.509 104.281 103.575 104.14 103.585L104.06 103.575Z" fill="#263238" stroke="#263238" stroke-miterlimit="10" stroke-linecap="round"/>
<path d="M104 101.9C103.705 101.874 103.43 101.742 103.225 101.529C103.02 101.315 102.899 101.035 102.885 100.74L102.115 96.6149L98.6497 52.9199C98.6086 52.1528 98.8739 51.4008 99.3872 50.8292C99.9006 50.2577 100.62 49.9135 101.387 49.8724C102.154 49.8313 102.906 50.0967 103.478 50.61C104.049 51.1234 104.394 51.8428 104.435 52.6099L105.555 96.7649L105.345 100.61C105.353 100.772 105.33 100.933 105.276 101.086C105.223 101.238 105.139 101.379 105.031 101.499C104.923 101.619 104.792 101.717 104.646 101.787C104.5 101.857 104.341 101.897 104.18 101.905C104.12 101.908 104.059 101.907 104 101.9Z" fill="#67CF94" stroke="#263238" stroke-miterlimit="10" stroke-linecap="round"/>
<path d="M98.6248 52.92L99.6248 65.53C100.31 66.0317 101.138 66.3022 101.987 66.3022C102.837 66.3022 103.664 66.0317 104.35 65.53C104.483 65.4258 104.608 65.3122 104.725 65.19L104.41 52.63C104.369 51.8628 104.024 51.1434 103.453 50.6301C102.881 50.1167 102.129 49.8514 101.362 49.8925C100.595 49.9336 99.8757 50.2777 99.3624 50.8493C98.849 51.4208 98.5837 52.1728 98.6248 52.94V52.92Z" fill="#263238" stroke="#263238" stroke-miterlimit="10" stroke-linecap="round"/>
<path d="M135.14 47.325C133.5 52.73 126.26 60.1599 125 62.7799C122.174 68.7162 118.905 74.4307 115.22 79.875C113.975 81.74 112.63 82.005 111.81 82.675C110.61 83.675 109.995 84.7 107.945 86.29C104.5 88.97 101.6 86.475 103.49 81.32C105.38 76.1649 108.85 69 108.85 69C108.85 69 109.72 65.375 106.175 62.235" fill="white"/>
<path d="M135.14 47.325C133.5 52.73 126.26 60.1599 125 62.7799C122.174 68.7162 118.905 74.4307 115.22 79.875C113.975 81.74 112.63 82.005 111.81 82.675C110.61 83.675 109.995 84.7 107.945 86.29C104.5 88.97 101.6 86.475 103.49 81.32C105.38 76.1649 108.85 69 108.85 69C108.85 69 109.72 65.375 106.175 62.235" stroke="#263238" stroke-miterlimit="10" stroke-linecap="round"/>
<path d="M104.25 84.5299L105.19 82.5699C105.19 82.5699 105.325 82.7449 106.98 83.4249C107.966 83.8325 109.039 83.9838 110.1 83.8649C110.1 83.8649 107.715 87.6249 105.85 87.3899C105.385 87.3458 104.948 87.1468 104.61 86.8249C104.318 86.5275 104.127 86.1465 104.062 85.7351C103.998 85.3237 104.063 84.9023 104.25 84.5299Z" fill="white" stroke="#263238" stroke-miterlimit="10" stroke-linecap="round"/>
<path d="M118.08 9.33495L114.105 35.15C114.105 35.15 118.9 39.365 125.27 40.5C131.64 41.635 143.27 43.3549 143.27 43.3549L153.45 9.32495" fill="#263238"/>
<path d="M118.08 9.33495L114.105 35.15C114.105 35.15 118.9 39.365 125.27 40.5C131.64 41.635 143.27 43.3549 143.27 43.3549L153.45 9.32495" stroke="#263238" stroke-miterlimit="10" stroke-linecap="round"/>
<path d="M141.22 37.585C141.22 37.9736 141.105 38.3536 140.889 38.6767C140.673 38.9998 140.366 39.2517 140.007 39.4004C139.648 39.5491 139.253 39.5881 138.872 39.5122C138.491 39.4364 138.14 39.2493 137.866 38.9745C137.591 38.6997 137.404 38.3495 137.328 37.9683C137.252 37.5872 137.291 37.1921 137.44 36.833C137.588 36.474 137.84 36.1671 138.163 35.9512C138.486 35.7352 138.866 35.62 139.255 35.62C139.776 35.62 140.276 35.827 140.645 36.1955C141.013 36.564 141.22 37.0638 141.22 37.585Z" fill="white" stroke="#263238" stroke-width="2" stroke-linecap="round" stroke-linejoin="round"/>
<path d="M108.605 78.1549L108.27 77.8149" stroke="#263238" stroke-miterlimit="10" stroke-linecap="round"/>
<path d="M113.185 80.1099C113.185 80.1099 111.765 80.8799 109.27 78.7649" stroke="#263238" stroke-miterlimit="10" stroke-linecap="round"/>
<path d="M110.16 78.05C110.16 78.05 110.83 77.815 112.92 79.05" stroke="#263238" stroke-miterlimit="10" stroke-linecap="round"/>
<path d="M108.535 79.4399C109.363 80.2152 110.359 80.79 111.445 81.1199" stroke="#263238" stroke-miterlimit="10" stroke-linecap="round"/>
<path d="M109.97 163.585C109.97 163.585 110.425 168.3 111.47 171.275C112.515 174.25 112.575 177.19 109.94 176.685C108.36 176.38 107.325 174.35 107.325 174.35C107.325 174.35 109.36 176.975 108.07 179.645C106.78 182.315 102.37 177.535 102.37 177.535C102.37 177.535 104.16 182.895 102.3 182.95C100.44 183.005 98.6354 180.555 97.4754 179.68C96.3154 178.805 93.3054 170.68 91.9104 169.65C90.5154 168.62 85.4503 169.515 83.7003 171.84C81.9503 174.165 78.4004 171.13 83.3704 163.575C88.3404 156.02 94.7554 151.375 99.1754 151.795C103.595 152.215 109.97 163.585 109.97 163.585Z" fill="white" stroke="#263238" stroke-miterlimit="10" stroke-linecap="round"/>
<path d="M105.405 172.54L98.7452 162.075C98.7452 162.075 95.3402 158.12 88.7852 160.735" stroke="#263238" stroke-miterlimit="10" stroke-linecap="round"/>
<path d="M101.675 174.1L94.36 166.395C94.36 166.395 90.815 163.36 85.165 166.025" stroke="#263238" stroke-miterlimit="10" stroke-linecap="round"/>
<path d="M87.2453 171.965L92.4653 178.095L77.5303 190.165C77.5303 190.165 69.3703 194.215 66.3403 196.305C63.3103 198.395 46.7653 200.5 46.7653 200.5L43.6753 181.4C43.6753 181.4 53.3453 179.215 54.6253 177.995C55.9053 176.775 69.1253 161.21 70.8603 158.885C72.5953 156.56 81.4703 154.485 81.4703 154.485C81.4703 154.485 85.4403 153.19 89.8753 149.245C94.3103 145.3 100.015 146.605 102.165 148.59C104.315 150.575 110.165 156.09 111.32 159.86C112.475 163.63 113.045 167.725 110.195 166.67C105.46 164.915 103.025 155.01 97.2953 156.265C94.6753 156.84 87.6153 162.765 86.6853 163.525C86.6853 163.525 84.5153 168.815 87.2453 171.965Z" fill="white" stroke="#263238" stroke-miterlimit="10" stroke-linecap="round"/>
<path d="M126.935 168C126.926 167.87 126.87 167.749 126.778 167.657C126.687 167.565 126.565 167.509 126.435 167.5L124.985 167.445C124.914 167.442 124.844 167.454 124.777 167.478C124.71 167.503 124.649 167.541 124.597 167.589C124.545 167.637 124.503 167.695 124.474 167.76C124.444 167.824 124.428 167.894 124.425 167.965C124.423 168.036 124.434 168.107 124.459 168.173C124.483 168.24 124.521 168.301 124.569 168.353C124.617 168.405 124.676 168.447 124.74 168.476C124.805 168.506 124.874 168.522 124.945 168.525L126.395 168.58C126.535 168.584 126.671 168.535 126.775 168.442C126.879 168.349 126.944 168.219 126.955 168.08C126.951 168.053 126.945 168.026 126.935 168Z" fill="#263238" stroke="#263238" stroke-miterlimit="10" stroke-linecap="round"/>
<path d="M125.265 167.955C125.233 167.661 125.096 167.388 124.88 167.186C124.663 166.984 124.381 166.866 124.085 166.855L119.95 166.145L76.2104 163.33C75.8302 163.315 75.4508 163.375 75.0939 163.507C74.737 163.639 74.4096 163.84 74.1303 164.098C73.8511 164.357 73.6254 164.668 73.4663 165.013C73.3072 165.359 73.2176 165.732 73.2029 166.112C73.1881 166.493 73.2483 166.872 73.3802 167.229C73.512 167.586 73.7129 167.913 73.9712 168.192C74.2296 168.472 74.5405 168.697 74.8861 168.857C75.2316 169.016 75.6052 169.105 75.9854 169.12L120.15 169.58L123.99 169.32C124.317 169.332 124.635 169.214 124.875 168.992C125.115 168.77 125.257 168.462 125.27 168.135C125.274 168.075 125.272 168.015 125.265 167.955Z" fill="#67CF94" stroke="#263238" stroke-miterlimit="10" stroke-linecap="round"/>
<path d="M76.21 163.33L88.83 164.145C89.3398 164.825 89.6199 165.649 89.6298 166.498C89.6397 167.348 89.3788 168.179 88.885 168.87C88.78 169.002 88.6681 169.129 88.55 169.25L76 169.12C75.6198 169.105 75.2463 169.016 74.9007 168.857C74.5551 168.697 74.2443 168.472 73.9859 168.192C73.7275 167.913 73.5267 167.586 73.3948 167.229C73.263 166.872 73.2027 166.493 73.2175 166.112C73.2323 165.732 73.3218 165.359 73.4809 165.013C73.6401 164.668 73.8657 164.357 74.145 164.098C74.4243 163.84 74.7517 163.639 75.1086 163.507C75.4655 163.375 75.8448 163.315 76.225 163.33H76.21Z" fill="#263238" stroke="#263238" stroke-miterlimit="10" stroke-linecap="round"/>
<path d="M66.3403 196.305C71.7003 194.515 82.1403 187.44 84.9353 186.63C87.7303 185.82 94.5703 184.53 99.1203 181.4C103.67 178.27 107.085 175.63 109.715 172.14C112.345 168.65 109.805 165.795 104.675 167.76C99.5453 169.725 92.4203 173.32 92.4203 173.32C92.4203 173.32 88.8103 174.24 85.6153 170.74" fill="white"/>
<path d="M66.3403 196.305C71.7003 194.515 82.1403 187.44 84.9353 186.63C87.7303 185.82 94.5703 184.53 99.1203 181.4C103.67 178.27 107.085 175.63 109.715 172.14C112.345 168.65 109.805 165.795 104.675 167.76C99.5453 169.725 92.4203 173.32 92.4203 173.32C92.4203 173.32 88.8103 174.24 85.6153 170.74" stroke="#263238" stroke-miterlimit="10" stroke-linecap="round"/>
<path d="M107.9 168.5L105.95 169.465C105.95 169.465 106.13 169.6 106.835 171.24C107.263 172.221 107.435 173.294 107.335 174.36C107.335 174.36 111.06 171.92 110.795 170.055C110.744 169.59 110.54 169.156 110.215 168.82C109.912 168.531 109.525 168.344 109.109 168.287C108.694 168.229 108.271 168.304 107.9 168.5Z" fill="white" stroke="#263238" stroke-miterlimit="10" stroke-linecap="round"/>
<path d="M53.5902 177.285C53.5902 177.285 58.3702 183.75 59.1552 189.35C59.6451 193.099 59.9023 196.874 59.9252 200.655L45.3302 204.155C45.3302 204.155 44.6702 195.075 43.3702 190.155C42.4548 186.844 41.319 183.599 39.9702 180.44L53.5902 177.285Z" fill="white" stroke="#263238" stroke-miterlimit="10" stroke-linecap="round"/>
<path d="M54.2552 188.565C52.9552 182.225 48.6302 177.53 48.6302 177.53L14.0952 183.03V222.03L54.9552 205.175C54.9552 205.175 55.5502 194.905 54.2552 188.565Z" fill="#263238" stroke="#263238" stroke-miterlimit="10" stroke-linecap="round"/>
<path d="M45.0001 205.5C45.0061 205.805 44.9206 206.105 44.7548 206.361C44.589 206.617 44.3504 206.818 44.0696 206.937C43.7889 207.057 43.4788 207.09 43.1792 207.032C42.8797 206.974 42.6043 206.827 42.3886 206.612C42.1728 206.396 42.0265 206.12 41.9684 205.821C41.9103 205.521 41.9431 205.211 42.0626 204.93C42.1821 204.65 42.3829 204.411 42.639 204.245C42.8952 204.079 43.1951 203.994 43.5001 204C43.8956 204.008 44.2726 204.168 44.5523 204.448C44.832 204.727 44.9925 205.105 45.0001 205.5Z" fill="white"/>
<path d="M49.2905 203.68C49.2895 203.982 49.1989 204.278 49.0302 204.529C48.8615 204.78 48.6222 204.975 48.3425 205.09C48.0629 205.205 47.7554 205.235 47.4589 205.175C47.1625 205.115 46.8903 204.969 46.6768 204.755C46.4634 204.541 46.3181 204.268 46.2595 203.972C46.2009 203.675 46.2315 203.368 46.3474 203.088C46.4634 202.809 46.6595 202.57 46.911 202.403C47.1625 202.235 47.4581 202.145 47.7605 202.145C47.9618 202.145 48.1612 202.185 48.3471 202.262C48.5331 202.339 48.702 202.452 48.8441 202.595C48.9862 202.738 49.0988 202.907 49.1754 203.093C49.252 203.279 49.2911 203.479 49.2905 203.68Z" fill="white"/>
<path d="M98.2003 174.445L97.8604 174.115" stroke="#263238" stroke-miterlimit="10" stroke-linecap="round"/>
<path d="M100.225 179C100.225 179 100.975 177.565 98.8203 175.1" stroke="#263238" stroke-miterlimit="10" stroke-linecap="round"/>
<path d="M98.1254 176C98.1254 176 97.8954 176.675 99.1504 178.745" stroke="#263238" stroke-miterlimit="10" stroke-linecap="round"/>
<path d="M99.5 174.355C100.29 175.173 100.88 176.162 101.225 177.245" stroke="#263238" stroke-miterlimit="10" stroke-linecap="round"/>
</svg>
